<svg xmlns="http://www.w3.org/2000/svg" viewBox="0 0 2000 600"><defs><style>.cls-1{fill:silver;}</style></defs><g id="Layer_16" data-name="Layer 16"><rect class="cls-1" x="40.17" y="307.75" width="1920" height="11.52"/><path class="cls-1" d="M1417.54,318.63c-.23-.32-.45-.65-.67-1-1.14-1.65-3.65-2.78-5.73-3.29-13.22-3.25-26.64-5.74-39.7-9.5-11.44-3.29-17.6-12.83-16.76-23.49.88-11.09,7.91-18.08,20.38-20.23,8.65-1.5,17.3-3,26.54-4.57a17.89,17.89,0,0,0-2-2.83c-14.41-12.64-28.79-25.32-43.37-37.76-1.54-1.32-4.28-1.79-6.44-1.74-9.79.26-19.59,1.36-29.37,1.14-7.53-.17-15-2-22.55-2.76-1.94-.19-4.63.38-6,1.66-12,11.53-23.79,23.2-35.38,35.11A20.41,20.41,0,0,0,1252,258c-1.54,5.59-4.75,8.44-10.5,8.14-5.52-.29-8.69-3.35-9-8.87-.28-6,2.65-9.49,8.76-10.53a13,13,0,0,0,6.6-3q19.18-18.74,38-37.89c1.13-1.14,2.17-3.31,1.9-4.74-3.11-16.42.17-23.08,15.09-29.84l24-10.89c-16.82-8.17-32.42-15-47.27-23.23-8.33-4.61-15.4-4.37-24-1.31a200.71,200.71,0,0,1-36.23,9.51c-9.83,1.52-17.94-5.42-21.2-15-3-8.8-.24-18,7.19-24.06,7.21-5.9,14.41-11.82,23.1-19-21.63-4.25-41.4-8.26-61.25-11.88-2.09-.38-4.8,1.19-6.89,2.43-11.87,7.08-23.31,15-35.55,21.31a21.31,21.31,0,0,1-27.09-5.78c-7-8.95-6.82-18.32.32-28.15,5.29-7.28,10.49-14.63,16.37-22.84-3.17,0-4.85-.1-6.51,0-15.93,1.16-31.85,2.68-47.8,3.39-7.35.33-12.59,2.78-17.43,8.44A285.8,285.8,0,0,1,1017,81c-7.45,6.72-16.55,7.24-25.51,2-8-4.63-12-13-10.3-22.88.8-4.54,2.92-8.85,4.52-13.24,2-5.63,4.15-11.23,6.8-18.37-4.08,1.26-6.27,1.87-8.43,2.61-14.07,4.85-28,10.37-42.28,14.37-8.3,2.32-12.5,7.28-16.11,14.41-5.56,11-11.09,22.17-18.26,32.09-8.54,11.81-25.58,10.77-34.67-.63-5.4-6.78-4.34-14.37-3.65-22,.65-7.24,1.43-14.46,2.32-23.27C852.92,58.61,836,69.94,819.17,81.48c-1.29.89-1.83,3.2-2.25,5-3.16,13.24-5.7,26.65-9.43,39.72-3.23,11.3-12.92,17.57-23.53,16.76-11-.85-18.07-7.91-20.23-20.36-1.51-8.66-3-17.32-4.62-26.58a19.21,19.21,0,0,0-2.74,2c-12.77,14.57-25.56,29.13-38.18,43.83a8.28,8.28,0,0,0-1.44,5.26c.31,9.58,1.38,19.16,1.18,28.73-.17,8-1.92,15.89-2.56,23.87-.17,2.11.47,5,1.86,6.42q17.76,18.39,36,36.26a14.32,14.32,0,0,0,7,3.47c5.89,1.14,8.58,4.59,8.23,10.27-.33,5.42-3.41,8.47-9,8.83-6.18.39-8.71-3.14-9.95-8.55-.48-2.13-1.12-4.62-2.56-6.09q-19-19.38-38.42-38.35c-1.24-1.22-3.68-2.29-5.24-1.95-14.79,3.32-22.88-.53-29.15-14.37-3.55-7.84-7-15.71-11.14-24.88-8.19,16.82-15.17,32.58-23.47,47.6-4.5,8.16-4.18,15.09-1.22,23.48,4.07,11.57,7.63,23.51,9.57,35.59,1.66,10.35-4.94,18.57-14.69,22-9,3.18-18.21.42-24.58-7.35l-18.48-22.58c-1,4.06-1.66,6.65-2.18,9.28-2.59,13.28-5.29,26.56-7.68,39.88Z"/><path class="cls-1" d="M91,501.56c-40.51,0-51.8-27.89-54.29-36.43C30.86,445,38,423.57,54.08,412.33l4.83,6.1a37.59,37.59,0,0,0-14.49,23.72,41.79,41.79,0,0,0,7.07,32.15L53,476.39l1.64-2a72.39,72.39,0,0,0,7.16-10.54l48.68-84.16c8.55-14.91,20.17-20.22,28.19-20.22,12.83,0,21.54,6.33,23.28,16.94,2.12,12.88-6.7,30.31-27.23,37.25L130.87,415l3.4,2.25c13.41,8.92,18.39,25.54,13,43.38A58.05,58.05,0,0,1,91,501.56ZM71.9,469.51a90,90,0,0,1-8.83,12.57l-1.58,1.85,2.12,1.2c7.66,4.32,16.77,6.52,27.07,6.52,25.3,0,42.53-20.44,44.58-40.19,1.45-14-4.6-30.62-25.91-35.08l-.1,0-6.26-.67Zm67.88-101.43c-3.42,0-10.14,1.7-16.75,13.08l-16.4,28.11,3.56-.06c17.18-.33,29.42-3.53,37.38-18.45,3.38-6.37,3.72-13,.9-17.66A10,10,0,0,0,139.78,368.08Z"/><path class="cls-1" d="M206.15,491.47c-4.93,0-8.81-1.51-11.21-4.38-2.23-2.67-3.05-6.45-2.3-10.66l1.08-6.05-4.43,4.26c-11.8,11.32-21.08,16.83-28.36,16.83-2.84,0-6.66-.73-8.66-4.19-2.6-4.49-1.34-11.82,3.44-20.12l34.9-60.39h13.48L170.5,465.34l-.51.86c-2.14,3.57-4.81,8-3.68,11.47a4.92,4.92,0,0,0,2.89,3,4.63,4.63,0,0,0,1.94.38c6.56,0,20.37-11.69,28-18.65l.23-.22,31.76-55.44h13.48l-36.9,64.67c-2.54,4.34-3.14,7.77-1.77,10.16,1,1.77,3,2.74,5.59,2.74,7.69,0,18.89-8.84,35.26-27.83l.16-.18a15,15,0,0,1,3.85,3.55C232.34,481.13,217.73,491.47,206.15,491.47Z"/><path class="cls-1" d="M250.85,491.47c-5.73,0-10.08-2.07-12.27-5.84-2.56-4.42-2-10.58,1.66-16.91l35.76-62h13.49l-37.07,64.66c-2.55,4.35-3.15,7.78-1.78,10.17,1,1.77,3,2.74,5.6,2.74,7.69,0,18.89-8.84,35.25-27.83l.17-.18a15.2,15.2,0,0,1,3.85,3.55C277,481.13,262.42,491.47,250.85,491.47Zm44.35-97.92a8.25,8.25,0,0,1-8.44-8.43,8.53,8.53,0,1,1,8.44,8.43Z"/><path class="cls-1" d="M295.54,491.47c-5.72,0-10.08-2.07-12.26-5.84-2.57-4.42-2-10.58,1.65-16.91l57.86-100.21h13.47L297.11,471.43c-2.54,4.35-3.14,7.78-1.77,10.17,1,1.77,3,2.74,5.59,2.74,7.69,0,18.89-8.84,35.26-27.83l.16-.18a15,15,0,0,1,3.85,3.55C321.73,481.13,307.12,491.47,295.54,491.47Z"/><path class="cls-1" d="M380.93,491.47c-7.77,0-12.88-3.76-13.66-10.07l-.45-3.6L364,480.1c-8.94,7.33-17.39,11.37-23.77,11.37-5.73,0-10.08-2.07-12.27-5.84-2.56-4.42-2-10.58,1.66-16.91L355,424.91c5.58-9.64,17.72-19.88,29.23-19.88a17.74,17.74,0,0,1,14.82,8.45l1.76,2.83,27.7-47.8H442L382.51,471.43c-2.55,4.35-3.15,7.78-1.78,10.17,1,1.77,3,2.74,5.6,2.74,7.68,0,18.89-8.84,35.25-27.83l.17-.18a15.16,15.16,0,0,1,3.84,3.55C407.13,481.13,392.51,491.47,380.93,491.47Zm3-75.77c-4.9,0-11.92,3.08-16.91,11.73l-25.22,44c-2.55,4.35-3.15,7.78-1.78,10.17,1,1.77,3,2.74,5.6,2.74,9.2,0,20.95-10.24,31.44-27.39l15.51-26.7h-.52c1.55-4,1.53-7.66-.1-10.4A9,9,0,0,0,383.94,415.7Z"/><path class="cls-1" d="M551.2,508c-17.73,0-32.22-6.68-40.81-18.8l-.78-1.12-1.33.33a46.79,46.79,0,0,1-11.17,1.42,33.63,33.63,0,0,1-21.94-7.56l3.07-3.87a34.16,34.16,0,0,0,17.71,4.8,39.39,39.39,0,0,0,7.82-.8l2.3-.47-.83-2.2c-5.32-14.14-3.46-30.39,4.85-42.41,7.58-10.94,19.7-17,34.15-17a31.58,31.58,0,0,1,22.44,9l1.39,1.36,27.51-26.95,0-.76c2.45-37.94,11.69-54.13,30.87-54.13,6.26,0,10.91,2.65,12.77,7.27,2.18,5.41.75,14.79-9.8,24.94L608,402.15l0,.76c-.48,7.8-.7,17.39-.7,30.21,0,20.95-5.12,39.8-14.4,53.07C582.91,500.46,568.5,508,551.2,508Zm-13.58-37a72.24,72.24,0,0,1-15.21,11.5l-2.15,1.18,1.58,1.87c4.64,5.48,13.5,12,29.36,12,26.87,0,43.56-24.69,43.56-64.44V414.93l-22.17,22,.65,1.3c7.3,14.62,2.87,28-5.06,35.49l-4.79-4.9c6.63-7.17,8.51-15.91,5.14-24.23l-1.12-2.77Zm6.62-42.31a29.17,29.17,0,0,0-24.79,12.81c-6.55,9.53-8,22.91-3.69,34.08l.86,2.24,2-1.25a71.38,71.38,0,0,0,12.17-9.31l31.9-31.34L561,434.51A27,27,0,0,0,544.24,428.69Zm79.48-70.09c-7.19,0-11.56,8.09-14.15,26.24l-.83,5.82,11.51-11.24c7.46-7.12,10.66-13.33,9-17.46A5.62,5.62,0,0,0,623.72,358.6Z"/><path class="cls-1" d="M637.63,492.34c-11.46,0-18.87-6.79-18.87-17.3,0-5.72,2-12,6.17-19.18l12.3-21.61h6.84l-.28-2.25a35.46,35.46,0,0,1-.33-4.27c0-10.57,9.69-25.31,25.48-25.31,9.56,0,16.55,3.3,20.2,9.55,4.72,8.07,3.51,20.47-3.16,32.35l-2.59,4.52,3.81-.33A44,44,0,0,0,716.14,434l.83-.84,15.21-26.36h13.48l-9.06,15.79,3.3,2.24C750.32,411.68,760.27,405,769.46,405a10.79,10.79,0,0,1,9.33,4.9c2.32,3.73,2.14,8.75-.51,14.13l3.36,2.12C792.8,412,802.87,405,812.42,405a10.8,10.8,0,0,1,9.56,5.13c2.37,4.09,1.82,9.61-1.56,15.54l-26.09,45.74c-2.54,4.34-3.14,7.77-1.77,10.16,1,1.77,3,2.74,5.6,2.74,7.68,0,18.89-8.84,35.25-27.83l.17-.18a15.2,15.2,0,0,1,3.85,3.55c-18.47,21.25-33.09,31.59-44.66,31.59-5.73,0-10.08-2.07-12.27-5.84-2.56-4.42-2-10.58,1.65-16.91l23.48-40.86c2.6-4.46,3.26-8.25,1.87-10.67a4.81,4.81,0,0,0-4.4-2.33c-10.27,0-28.64,20.79-42.4,40.24l-.06.08-19.82,34.55H727l35.66-61.87c2.56-4.44,3.21-8.21,1.83-10.61a4.83,4.83,0,0,0-4.4-2.33c-8.58,0-24.15,14.63-41.66,39.13l-.06.08-20.51,35.6H684.23l24-41.58-5.44,2.26a56.38,56.38,0,0,1-21.67,4.19H680l-8.75,15.27C664.9,480.73,652.76,492.34,637.63,492.34Zm-3.65-28c-2.31,3.9-3.39,7.21-3.39,10.38,0,5.27,3.82,9,9.3,9,6,0,12.31-4.08,16-10.39l11.7-20.09-2.4-.74c-6.87-2.11-12.24-5.31-16-9.51l-1.85-2.08Zm34.36-53.37c-7.7,0-12.88,8.05-12.88,15.57,0,9.1,5.15,16.31,14.15,19.78l1.57.61,5-8.4c4.48-7.6,5.4-16.1,2.34-21.67a11.24,11.24,0,0,0-9.91-5.88Z"/><path class="cls-1" d="M851.37,491.47c-9.25,0-16.61-3.59-20.2-9.85-3.79-6.61-3-15.43,2.1-24.18l19-32.53c7.53-13,18.66-19.88,32.19-19.88,6.55,0,12,2.74,14.66,7.31,2.9,5.06,2.21,11.77-2,18.9l-2.61,4.53c-11.46,19.84-27.66,22-34.1,22a27.55,27.55,0,0,1-10.53-1.95l-1.65-.69-2.61,4.69c-5.4,9.45-4.35,15.2-2.53,18.35,2.32,4,7.18,6.19,13.67,6.19,14.72,0,32.36-14.37,44-27.83l.16-.18a15,15,0,0,1,3.85,3.55C893.94,472.18,873.49,491.47,851.37,491.47Zm30.29-77c-6,0-12.82,5.09-17.41,13l-12.84,22.43,2.24.81a23.7,23.7,0,0,0,7.91,1.39h0c6,0,14.69-2.47,21.62-14.26l2.62-4.54c3.63-6.32,4.5-11.74,2.45-15.27A7.32,7.32,0,0,0,881.66,414.46Z"/><path class="cls-1" d="M904.76,491.47c-5.72,0-10.08-2.07-12.26-5.84-2.57-4.42-2-10.58,1.65-16.91l38.08-66H915.77l2.82-4.69H935l17-29.57h13.47l-17.05,29.57h14.89l-2.82,4.69H945.69l-39.36,68.66c-2.54,4.35-3.14,7.78-1.77,10.17,1,1.77,3,2.74,5.59,2.74,7.69,0,18.89-8.84,35.26-27.83l.16-.18a15,15,0,0,1,3.85,3.55C931,481.13,916.34,491.47,904.76,491.47Z"/><path class="cls-1" d="M990.15,491.47c-5.72,0-10.08-2.07-12.26-5.84-2.57-4.42-2-10.58,1.65-16.91L1003,427.86c2.58-4.43,3.25-8.19,1.87-10.59a4.78,4.78,0,0,0-4.39-2.33c-7,0-19.11,10.1-33.13,27.72l-.09.12-27,47H926.66l69.87-121.22H1010l-27.15,47.27,3.18,2.38c8.39-8.71,16.39-13.13,23.78-13.13a10.78,10.78,0,0,1,9.55,5.13c2.38,4.09,1.83,9.61-1.55,15.54l-26.09,45.74c-2.54,4.34-3.14,7.77-1.77,10.16,1,1.77,3,2.74,5.6,2.74,7.68,0,18.89-8.84,35.25-27.83l.17-.18a15.16,15.16,0,0,1,3.84,3.55C1016.35,481.13,1001.73,491.47,990.15,491.47Z"/><path class="cls-1" d="M1034.85,491.47c-5.72,0-10.08-2.07-12.27-5.84-2.56-4.42-2-10.58,1.66-16.91l35.76-62h13.49l-37.07,64.66c-2.55,4.35-3.15,7.78-1.78,10.17,1,1.77,3,2.74,5.6,2.74,7.69,0,18.89-8.84,35.26-27.83l.16-.18a15.2,15.2,0,0,1,3.85,3.55C1061,481.13,1046.42,491.47,1034.85,491.47Zm44.35-97.92a8.25,8.25,0,0,1-8.44-8.43,8.53,8.53,0,1,1,8.44,8.43Z"/><path class="cls-1" d="M1120.24,491.47c-5.72,0-10.08-2.07-12.27-5.84-2.56-4.42-2-10.58,1.66-16.91l23.48-40.86c2.58-4.43,3.25-8.2,1.87-10.61a4.83,4.83,0,0,0-4.42-2.34c-7,0-19,10-32.93,27.4l-.09.12-27.15,47.3h-13.64l48-83h13.48l-5.07,8.83,3.18,2.39c8.39-8.72,16.11-13,23.6-13a10.8,10.8,0,0,1,9.56,5.13c2.38,4.09,1.82,9.61-1.55,15.54l-26.09,45.74c-2.55,4.34-3.15,7.77-1.78,10.16,1,1.77,3,2.74,5.6,2.74,7.69,0,18.89-8.84,35.26-27.83l.16-.18a15,15,0,0,1,3.85,3.55C1146.43,481.13,1131.82,491.47,1120.24,491.47Z"/><path class="cls-1" d="M1153.16,539.14c-6.82,0-13.7-3.8-13.7-12.28,0-11.48,12.86-21.25,38.24-29l.74-.23,5.44-9.19-2.79-2.71c-5.93,3.73-11.67,5.78-16.15,5.78-5.73,0-10.08-2.07-12.27-5.84-2.56-4.42-2-10.58,1.65-16.91l25.39-43.81c5.58-9.64,17.72-19.88,29.23-19.88,10.35,0,17,9.12,17,15.4v2H1235l-41.82,71.43,5.57-2.37c13.86-5.92,26.66-16.38,42.81-35l.17-.19a15.38,15.38,0,0,1,3.85,3.55c-18.47,21.29-36.08,34-55.35,40l-.74.23-14.13,24.51C1167.5,538.09,1156.38,539.14,1153.16,539.14Zm16.26-32.92c-13,5.11-19.35,10.78-19.35,17.34,0,3.44,2.34,5.94,5.56,5.94,3,0,6-2.18,8.09-5.83l10.91-19.49Zm39.22-90.52c-4.9,0-11.92,3.08-16.91,11.73l-25.22,44c-2.55,4.35-3.15,7.78-1.78,10.17,1,1.77,3,2.74,5.6,2.74,9.15,0,20.55-9.85,31.26-27l13.78-24.06c2.86-5.27,3.31-10,1.29-13.4A9,9,0,0,0,1208.64,415.7Z"/><path class="cls-1" d="M1352.59,501.56c-40.52,0-51.8-27.89-54.29-36.43-5.87-20.13,1.25-41.56,17.34-52.8l4.84,6.1A37.55,37.55,0,0,0,1306,442.15a41.75,41.75,0,0,0,7.07,32.15l1.52,2.09,1.64-2a71.57,71.57,0,0,0,7.15-10.54l48.69-84.16c8.55-14.91,20.16-20.22,28.18-20.22,12.84,0,21.54,6.33,23.29,16.94,2.12,12.88-6.71,30.31-27.23,37.25l-3.86,1.31,3.39,2.25c13.41,8.92,18.39,25.54,13,43.38A58,58,0,0,1,1352.59,501.56Zm-19.12-32.05a90.9,90.9,0,0,1-8.83,12.57l-1.59,1.85,2.12,1.2c7.67,4.32,16.78,6.52,27.07,6.52,25.31,0,42.54-20.44,44.58-40.19,1.45-14-4.59-30.62-25.91-35.08l-.09,0-6.27-.67Zm67.88-101.43c-3.42,0-10.15,1.7-16.75,13.08l-16.4,28.11,3.56-.06c17.17-.33,29.42-3.53,37.38-18.45,3.38-6.37,3.71-13,.89-17.66A10,10,0,0,0,1401.35,368.08Z"/><path class="cls-1" d="M1440.94,491.47c-9.25,0-16.62-3.59-20.2-9.85-3.8-6.61-3-15.43,2.09-24.18l19-32.53c7.53-13,18.66-19.88,32.19-19.88,6.55,0,12,2.74,14.66,7.31,2.9,5.06,2.21,11.77-2,18.9l-2.62,4.53c-11.46,19.84-27.66,22-34.1,22a27.47,27.47,0,0,1-10.52-1.95l-1.65-.69-2.61,4.69c-5.4,9.45-4.36,15.2-2.53,18.35,2.32,4,7.17,6.19,13.67,6.19,14.72,0,32.35-14.37,44-27.83l.16-.18a15,15,0,0,1,3.85,3.55C1483.5,472.18,1463.05,491.47,1440.94,491.47Zm30.28-77c-6,0-12.82,5.09-17.4,13L1441,449.85l2.25.81a23.69,23.69,0,0,0,7.9,1.39h0c6,0,14.69-2.47,21.63-14.26l2.61-4.54c3.63-6.32,4.5-11.74,2.46-15.27A7.34,7.34,0,0,0,1471.22,414.46Z"/><path class="cls-1" d="M1535,491.47c-7.77,0-12.88-3.76-13.66-10.07l-.45-3.6-2.81,2.3c-8.94,7.33-17.39,11.37-23.77,11.37-5.73,0-10.08-2.07-12.27-5.84-2.56-4.42-2-10.58,1.66-16.91l25.38-43.81c5.58-9.64,17.72-19.88,29.23-19.88a17.2,17.2,0,0,1,12.8,5.73c2.87,3.13,4.46,7.1,4.16,10.35l-.19,2.18h9l-27.51,48.15c-2.54,4.34-3.14,7.77-1.77,10.16,1,1.77,3,2.74,5.6,2.74,7.68,0,18.89-8.84,35.25-27.83l.17-.18a15.16,15.16,0,0,1,3.84,3.55C1561.22,481.13,1546.6,491.47,1535,491.47Zm3-75.77c-4.9,0-11.92,3.08-16.91,11.73l-25.22,44c-2.55,4.35-3.15,7.78-1.78,10.17,1,1.77,3,2.74,5.6,2.74,9,0,20.26-9.59,30.9-26.32l14.14-24.78c2.86-5.26,3.31-10,1.29-13.39A9,9,0,0,0,1538,415.7Z"/><path class="cls-1" d="M1620.42,491.47c-4.94,0-8.81-1.51-11.21-4.38-2.24-2.67-3-6.45-2.3-10.66l1.08-6.05-4.44,4.26c-11.8,11.32-21.07,16.83-28.35,16.83-2.85,0-6.67-.73-8.67-4.19-2.59-4.49-1.34-11.82,3.44-20.12l34.9-60.39h13.49l-33.59,58.57-.52.86c-2.14,3.57-4.8,8-3.68,11.47a4.92,4.92,0,0,0,2.89,3,4.66,4.66,0,0,0,1.94.38c6.57,0,20.37-11.69,28-18.65l.23-.22,31.75-55.44h13.49L1622,471.44c-2.54,4.34-3.14,7.77-1.77,10.16,1,1.77,3,2.74,5.6,2.74,7.68,0,18.89-8.84,35.25-27.83l.17-.18a15.2,15.2,0,0,1,3.85,3.55C1646.61,481.13,1632,491.47,1620.42,491.47Z"/><path class="cls-1" d="M1665.11,491.47c-5.72,0-10.08-2.07-12.27-5.84-2.56-4.42-2-10.58,1.66-16.91l38.08-66h-16.46l2.82-4.69h16.37l17-29.57h13.47l-17,29.57h14.89l-2.82,4.69H1706l-39.36,68.66c-2.55,4.35-3.15,7.78-1.77,10.17,1,1.77,3,2.74,5.59,2.74,7.69,0,18.89-8.84,35.26-27.83l.16-.18a15,15,0,0,1,3.85,3.55C1691.3,481.13,1676.69,491.47,1665.11,491.47Z"/><path class="cls-1" d="M1709.81,491.47c-5.73,0-10.08-2.07-12.27-5.84-2.56-4.42-2-10.58,1.65-16.91l35.77-62h13.48l-37.07,64.66c-2.54,4.35-3.14,7.78-1.77,10.17,1,1.77,3,2.74,5.6,2.74,7.68,0,18.89-8.84,35.25-27.83l.17-.18a15.37,15.37,0,0,1,3.85,3.55C1736,481.13,1721.38,491.47,1709.81,491.47Zm44.35-97.92a8.25,8.25,0,0,1-8.44-8.43,8.52,8.52,0,1,1,8.44,8.43Z"/><path class="cls-1" d="M1720.42,548.52a11.09,11.09,0,0,1-9.82-5.65c-2.95-5.11-2.34-12.28,1.63-19.18L1787,393.77c10.61-18.41,23.56-25,32.15-25,4.65,0,8.3,1.89,10.28,5.31,3.21,5.57,1.76,14.48-4,24.45l-29,50.26c-7.29,12.51-19.3,23.19-35.71,31.75l1.07,3.77c20.73-1.5,38.69-10.86,53.37-27.82l.16-.19a15.16,15.16,0,0,1,3.85,3.54c-15.61,17.59-35.22,26.85-59.91,28.3l-2.63.16.86,2.49a20.66,20.66,0,0,1-1.94,16.62L1742,531.27C1735.74,542.23,1727.88,548.52,1720.42,548.52Zm3-23.88c-3.25,5.51-4.21,10-2.72,12.61a3.89,3.89,0,0,0,3.45,2h0c2.89,0,6.25-2.82,9-7.55l15.14-26.62c5.86-10.89,2-15,0-16.24l-.49-.32h-3.31Zm92.15-145.37c-4.59,0-10.59,5.25-15.28,13.37l-52.14,89.48,5.63-2.47c16.66-7.31,29.19-25.67,35.19-36l28.17-48.88c3.26-6,4.12-10.6,2.49-13.32A4.52,4.52,0,0,0,1815.53,379.27Z"/><path class="cls-1" d="M1859.89,491.47c-4.93,0-8.81-1.51-11.21-4.38-2.23-2.67-3-6.45-2.3-10.66l1.08-6.05-4.43,4.26c-11.8,11.32-21.08,16.83-28.36,16.83-2.85,0-6.66-.73-8.66-4.19-2.6-4.49-1.34-11.82,3.44-20.12l34.9-60.39h13.48l-33.59,58.57-.51.86c-2.14,3.57-4.81,8-3.68,11.47a4.89,4.89,0,0,0,2.89,3,4.61,4.61,0,0,0,1.93.38c6.57,0,20.38-11.69,28-18.65l.23-.22,31.76-55.44h13.48l-36.9,64.67c-2.54,4.34-3.14,7.77-1.77,10.16,1,1.77,3,2.74,5.59,2.74,7.69,0,18.89-8.84,35.26-27.83l.16-.18a15,15,0,0,1,3.85,3.55C1886.08,481.13,1871.47,491.47,1859.89,491.47Z"/><path class="cls-1" d="M1904.59,491.47c-5.73,0-10.08-2.07-12.27-5.84-2.56-4.42-2-10.58,1.66-16.91l57.85-100.21h13.48l-59.15,102.92c-2.55,4.35-3.15,7.78-1.78,10.17,1,1.77,3,2.74,5.6,2.74,7.69,0,18.89-8.84,35.25-27.83l.17-.18a15.2,15.2,0,0,1,3.85,3.55C1930.78,481.13,1916.16,491.47,1904.59,491.47Z"/></g></svg>