<svg xmlns="http://www.w3.org/2000/svg" viewBox="0 0 2000 600"><defs><style>.cls-1{fill:#333;}</style></defs><g id="Layer_12" data-name="Layer 12"><rect class="cls-1" x="40" y="315.77" width="1920" height="11.52"/><path class="cls-1" d="M1417.36,326.65l-.66-1c-1.14-1.65-3.65-2.78-5.74-3.29-13.21-3.25-26.63-5.74-39.69-9.5-11.45-3.29-17.6-12.83-16.76-23.49.88-11.09,7.91-18.08,20.38-20.23,8.64-1.5,17.3-3,26.54-4.57a18.6,18.6,0,0,0-2-2.83c-14.41-12.64-28.79-25.32-43.37-37.76-1.54-1.32-4.28-1.79-6.44-1.74-9.8.26-19.59,1.36-29.37,1.14-7.53-.17-15-2-22.55-2.76-2-.19-4.63.38-6,1.66q-17.94,17.3-35.38,35.11a20.3,20.3,0,0,0-4.53,8.64c-1.54,5.59-4.75,8.44-10.5,8.14-5.52-.29-8.69-3.35-8.95-8.87-.28-6,2.65-9.49,8.76-10.53a13,13,0,0,0,6.6-3q19.18-18.74,38-37.89c1.13-1.14,2.17-3.31,1.9-4.74-3.11-16.42.17-23.08,15.08-29.84l24-10.89c-16.82-8.17-32.42-15-47.28-23.23-8.32-4.61-15.39-4.37-24-1.31a200.71,200.71,0,0,1-36.23,9.51c-9.83,1.52-17.94-5.42-21.2-15-3-8.8-.25-18,7.19-24.06,7.21-5.9,14.41-11.82,23.1-18.95-21.63-4.25-41.41-8.26-61.25-11.88-2.09-.38-4.81,1.19-6.89,2.43-11.87,7.08-23.32,15-35.55,21.31a21.32,21.32,0,0,1-27.1-5.78c-7-9-6.82-18.32.32-28.15,5.29-7.28,10.5-14.63,16.38-22.84-3.18,0-4.85-.1-6.51,0-15.94,1.16-31.85,2.68-47.8,3.39-7.35.33-12.59,2.78-17.43,8.44a285.8,285.8,0,0,1-25.63,26.68c-7.46,6.72-16.55,7.24-25.51,2-8-4.63-12-13-10.3-22.88.8-4.54,2.92-8.85,4.52-13.24,2-5.63,4.15-11.23,6.8-18.37-4.08,1.26-6.28,1.87-8.43,2.61-14.07,4.85-28,10.37-42.28,14.37-8.3,2.32-12.5,7.28-16.11,14.41-5.56,11-11.09,22.17-18.26,32.09-8.54,11.81-25.58,10.77-34.67-.63-5.4-6.78-4.34-14.36-3.65-22,.65-7.24,1.43-14.46,2.32-23.27C852.75,66.63,835.8,78,819,89.5c-1.29.89-1.83,3.2-2.25,5-3.16,13.24-5.7,26.65-9.43,39.72-3.23,11.3-12.92,17.57-23.53,16.76-11-.85-18.07-7.91-20.23-20.36-1.51-8.66-3-17.32-4.62-26.58a19.21,19.21,0,0,0-2.74,2c-12.77,14.57-25.56,29.13-38.19,43.83a8.27,8.27,0,0,0-1.43,5.26c.31,9.58,1.38,19.16,1.17,28.73-.17,8-1.91,15.89-2.56,23.87-.17,2.11.47,5,1.87,6.42q17.76,18.39,36.05,36.26a14.32,14.32,0,0,0,7,3.47c5.89,1.14,8.58,4.59,8.23,10.27-.34,5.42-3.41,8.47-9,8.83-6.18.39-8.72-3.14-10-8.55-.49-2.13-1.12-4.62-2.56-6.09q-19-19.38-38.42-38.35c-1.24-1.22-3.69-2.29-5.24-1.95-14.79,3.32-22.88-.53-29.15-14.37-3.55-7.84-7-15.71-11.14-24.88-8.19,16.82-15.17,32.58-23.47,47.6-4.51,8.16-4.18,15.09-1.23,23.48,4.08,11.57,7.64,23.51,9.57,35.59,1.67,10.35-4.93,18.57-14.68,22-9,3.18-18.21.42-24.58-7.35L590,277.49c-1,4.06-1.67,6.65-2.18,9.28-2.6,13.29-5.29,26.56-7.69,39.88Z"/><path class="cls-1" d="M121.9,563.39q-20.68,0-35.46-8.3a55,55,0,0,1-22.61-23.85Q56,515.68,56,493.74q0-21.75,7.83-37.3a54.71,54.71,0,0,1,22.41-23.76q14.6-8.21,34.5-8.2a78.35,78.35,0,0,1,26.38,4.29,57.46,57.46,0,0,1,21,12.88l-6.18,12a71.47,71.47,0,0,0-19.71-12.12,59.33,59.33,0,0,0-21.45-3.72q-23.38,0-35.85,14.41t-12.46,41.5q0,27.68,12.75,42.08t37.1,14.41a105.07,105.07,0,0,0,19.62-1.82,95.28,95.28,0,0,0,17.29-4.86l-3.86,8V503.48H121.12V491.07h48.7v63a63.24,63.24,0,0,1-13.24,5,127.5,127.5,0,0,1-16.81,3.25A141.89,141.89,0,0,1,121.9,563.39Z"/><path class="cls-1" d="M260.26,561.87V426H315q22.21,0,34.11,9.73t11.88,28.06q0,17.55-12.08,27.57t-33.91,10l14.3-2.68a20.81,20.81,0,0,1,12.95,4.11q5.4,4.1,8.69,13.07l17.39,46H351.47l-17-45.23q-3.3-8.58-9-11.35t-15.17-2.77h-34.4v59.35Zm15.65-72.32h37.68q16.05,0,23.87-6.49T345.29,464q0-12.6-7.73-18.8t-24-6.2H275.91Z"/><path class="cls-1" d="M453.89,561.87H437.46L498,426h13.91l60.49,135.87H556.12L502.2,437.45H508ZM463.17,527l5.6-13H541l5.61,13Z"/><path class="cls-1" d="M650.81,561.87V426h15.84V561.87Z"/><path class="cls-1" d="M758.64,561.87V426h12.17l87.74,115.45-4.64,1.14V426H869V561.87H856.61L769.07,446.61l4.45-1.33V561.87Z"/><path class="cls-1" d="M1004.44,563.39a103.6,103.6,0,0,1-19.9-1.81,68.22,68.22,0,0,1-17.2-5.73,63,63,0,0,1-14.3-9.63l6-12a68.36,68.36,0,0,0,21,12.21q10.53,3.63,24.64,3.62,16.43,0,25.51-6.39t9.08-18a14.92,14.92,0,0,0-4.54-11.35,32.35,32.35,0,0,0-12.37-6.87q-7.83-2.58-17.68-4.87-9.85-2.1-18.75-4.86a69.85,69.85,0,0,1-15.75-7A31.07,31.07,0,0,1,959.42,480q-3.87-6.48-3.87-16.21a35,35,0,0,1,6.19-20.52,40.67,40.67,0,0,1,17.39-13.83q11.21-5,26.47-5a80.5,80.5,0,0,1,18.17,2,69.57,69.57,0,0,1,16.13,5.82,56.22,56.22,0,0,1,13.24,9.35l-6.18,12a65.63,65.63,0,0,0-19.52-12,61.12,61.12,0,0,0-21.84-3.82q-16,0-25.12,6.68t-9.08,18.7q0,7.44,4.06,12a28,28,0,0,0,11.4,7.35,143.24,143.24,0,0,0,16.81,5.06q10.05,2.28,19.33,5a83.67,83.67,0,0,1,16.52,6.58A32.2,32.2,0,0,1,1051,509.3q4.24,6.19,4.25,15.74a33.68,33.68,0,0,1-6.19,20.22q-6.18,8.6-17.58,13.36T1004.44,563.39Z"/><path class="cls-1" d="M1139.13,561.87V426h13.15l55.84,125.37h-7.34L1256.05,426h13.14V561.87H1254.5V446.61l6,.76-50.63,114.5h-11.21l-51.4-114.5,6.38-.76.19,115.26Z"/><path class="cls-1" d="M1361.17,561.87V426H1377V561.87Z"/><path class="cls-1" d="M1502.24,561.87V439.36h-47.92V426h111.89v13.36h-47.93V561.87Z"/><path class="cls-1" d="M1643.5,561.87V426h15.66V561.87Zm7.35-62.4V486.3h99.71v13.17Zm90.82,62.4V426h15.85V561.87Z"/><path class="cls-1" d="M1893.18,563.39a103.71,103.71,0,0,1-19.91-1.81,68.22,68.22,0,0,1-17.2-5.73,63,63,0,0,1-14.3-9.63l6-12a68.48,68.48,0,0,0,21,12.21q10.53,3.63,24.64,3.62,16.43,0,25.51-6.39t9.08-18a14.88,14.88,0,0,0-4.54-11.35,32.35,32.35,0,0,0-12.37-6.87q-7.83-2.58-17.68-4.87-9.86-2.1-18.74-4.86a70.13,70.13,0,0,1-15.76-7A31.16,31.16,0,0,1,1848.15,480q-3.87-6.48-3.86-16.21a35,35,0,0,1,6.18-20.52,40.67,40.67,0,0,1,17.39-13.83q11.21-5,26.48-5a80.42,80.42,0,0,1,18.16,2,69.65,69.65,0,0,1,16.14,5.82,56.63,56.63,0,0,1,13.24,9.35l-6.19,12a65.5,65.5,0,0,0-19.52-12,61.1,61.1,0,0,0-21.83-3.82q-16,0-25.13,6.68t-9.08,18.7q0,7.44,4.06,12a28,28,0,0,0,11.4,7.35,143.83,143.83,0,0,0,16.81,5.06q10,2.28,19.33,5a83.67,83.67,0,0,1,16.52,6.58,32.2,32.2,0,0,1,11.5,10.12Q1944,515.49,1944,525a33.68,33.68,0,0,1-6.18,20.22q-6.19,8.6-17.59,13.36T1893.18,563.39Z"/></g></svg>