<svg xmlns="http://www.w3.org/2000/svg" viewBox="0 0 4206 600"><g id="Layer_13" data-name="Layer 13"><rect x="40" y="315.77" width="4111" height="11.52"/><path d="M1417.36,326.65l-.66-1c-1.14-1.65-3.65-2.78-5.74-3.29-13.21-3.25-26.63-5.74-39.69-9.5-11.45-3.29-17.6-12.83-16.76-23.49.88-11.09,7.91-18.08,20.38-20.23,8.64-1.5,17.3-3,26.54-4.57a18.6,18.6,0,0,0-2-2.83c-14.41-12.64-28.79-25.32-43.37-37.76-1.54-1.32-4.28-1.79-6.44-1.74-9.8.26-19.59,1.36-29.37,1.14-7.53-.17-15-2-22.55-2.76-2-.19-4.63.38-6,1.66q-17.94,17.3-35.38,35.11a20.3,20.3,0,0,0-4.53,8.64c-1.54,5.59-4.75,8.44-10.5,8.14-5.52-.29-8.69-3.35-8.95-8.87-.28-6,2.65-9.49,8.76-10.53a13,13,0,0,0,6.6-3q19.18-18.74,38-37.89c1.13-1.14,2.17-3.31,1.9-4.74-3.11-16.42.17-23.08,15.08-29.84l24-10.89c-16.82-8.17-32.42-15-47.28-23.23-8.32-4.61-15.39-4.37-24-1.31a200.71,200.71,0,0,1-36.23,9.51c-9.83,1.52-17.94-5.42-21.2-15-3-8.8-.25-18,7.19-24.06,7.21-5.9,14.41-11.82,23.1-18.95-21.63-4.25-41.41-8.26-61.25-11.88-2.09-.38-4.81,1.19-6.89,2.43-11.87,7.08-23.32,15-35.55,21.31a21.32,21.32,0,0,1-27.1-5.78c-7-9-6.82-18.32.32-28.15,5.29-7.28,10.5-14.63,16.38-22.84-3.18,0-4.85-.1-6.51,0-15.94,1.16-31.85,2.68-47.8,3.39-7.35.33-12.59,2.78-17.43,8.44a285.8,285.8,0,0,1-25.63,26.68c-7.46,6.72-16.55,7.24-25.51,2-8-4.63-12-13-10.3-22.88.8-4.54,2.92-8.85,4.52-13.24,2-5.63,4.15-11.23,6.8-18.37-4.08,1.26-6.28,1.87-8.43,2.61-14.07,4.85-28,10.37-42.28,14.37-8.3,2.32-12.5,7.28-16.11,14.41-5.56,11-11.09,22.17-18.26,32.09-8.54,11.81-25.58,10.77-34.67-.63-5.4-6.78-4.34-14.37-3.65-22,.65-7.24,1.43-14.46,2.32-23.27C852.75,66.63,835.8,78,819,89.5c-1.29.89-1.83,3.2-2.25,5-3.16,13.24-5.7,26.65-9.43,39.72-3.23,11.3-12.92,17.57-23.53,16.76-11-.85-18.07-7.91-20.23-20.36-1.51-8.66-3-17.32-4.62-26.58a19.21,19.21,0,0,0-2.74,2c-12.77,14.57-25.56,29.13-38.19,43.83a8.27,8.27,0,0,0-1.43,5.26c.31,9.58,1.38,19.16,1.17,28.73-.17,8-1.91,15.89-2.56,23.87-.17,2.11.47,5,1.87,6.42q17.76,18.39,36.05,36.26a14.32,14.32,0,0,0,7,3.47c5.89,1.14,8.58,4.59,8.23,10.27-.34,5.42-3.41,8.47-9,8.83-6.18.39-8.72-3.14-10-8.55-.49-2.13-1.12-4.62-2.56-6.09q-19-19.38-38.42-38.35c-1.24-1.22-3.69-2.29-5.24-1.95-14.79,3.32-22.88-.53-29.15-14.37-3.55-7.84-7-15.71-11.14-24.88-8.19,16.82-15.17,32.58-23.47,47.6-4.51,8.16-4.18,15.09-1.23,23.48,4.08,11.57,7.64,23.51,9.57,35.59,1.67,10.35-4.93,18.57-14.68,22-9,3.18-18.21.42-24.58-7.35L590,277.49c-1,4.06-1.67,6.65-2.18,9.28-2.6,13.29-5.29,26.56-7.69,39.88Z"/><path d="M122.28,568.3q-20.84,0-35.74-8.47a55.91,55.91,0,0,1-22.79-24.35q-7.89-15.87-7.89-38.28,0-22.2,7.89-38.08a55.65,55.65,0,0,1,22.59-24.25q14.72-8.37,34.77-8.38a77.75,77.75,0,0,1,26.59,4.39A57.89,57.89,0,0,1,168.84,444l-6.23,12.27a71.58,71.58,0,0,0-19.87-12.36,59,59,0,0,0-21.63-3.8q-23.56,0-36.13,14.7T72.42,497.2q0,28.24,12.85,42.95t37.4,14.71A104.1,104.1,0,0,0,142.44,553a95,95,0,0,0,17.44-5l-3.9,8.18V507.14H121.5V494.47h49.09v64.29a64.2,64.2,0,0,1-13.34,5.06,126.31,126.31,0,0,1-16.95,3.31A140.61,140.61,0,0,1,122.28,568.3Z"/><path d="M261.75,566.74V428.05h55.13q22.39,0,34.38,9.93t12,28.64q0,17.92-12.17,28.15T316.88,505l14.41-2.72a20.83,20.83,0,0,1,13.06,4.18q5.44,4.2,8.76,13.35l17.53,46.94H353.7l-17.15-46.16q-3.32-8.78-9.05-11.59t-15.29-2.83H277.53v60.58Zm15.78-73.82h38q16.16,0,24.05-6.63t7.89-19.48q0-12.85-7.79-19.18t-24.15-6.33h-38Z"/><path d="M456.94,566.74H440.38l61-138.69h14l61,138.69H560l-54.35-127h5.85Zm9.35-35.64,5.64-13.25h72.86l5.65,13.25Z"/><path d="M655.43,566.74V428.05h16V566.74Z"/><path d="M764.12,566.74V428.05H776.4L864.83,545.9l-4.67,1.17v-119h15.19V566.74H862.88L774.64,449.09l4.48-1.37v119Z"/><path d="M1011.9,568.3a103.65,103.65,0,0,1-20.07-1.85,68,68,0,0,1-17.33-5.84,63.38,63.38,0,0,1-14.42-9.84l6-12.27A68.48,68.48,0,0,0,987.26,551q10.61,3.7,24.83,3.71,16.56,0,25.72-6.53t9.15-18.41q0-7.2-4.58-11.59a32.63,32.63,0,0,0-12.46-7q-7.89-2.62-17.83-5-9.93-2.15-18.89-5a70,70,0,0,1-15.88-7.12,31.57,31.57,0,0,1-10.81-10.9q-3.9-6.63-3.89-16.56a36,36,0,0,1,6.23-20.94,41,41,0,0,1,17.53-14.12q11.29-5.07,26.69-5.07a80,80,0,0,1,18.31,2.05,69,69,0,0,1,16.26,5.94A57,57,0,0,1,1061,444l-6.24,12.27A65.92,65.92,0,0,0,1035.08,444a61,61,0,0,0-22-3.89q-16.17,0-25.33,6.82T978.59,466q0,7.59,4.09,12.27a28.42,28.42,0,0,0,11.49,7.5,144.53,144.53,0,0,0,17,5.16q10.13,2.34,19.48,5.06a83.55,83.55,0,0,1,16.65,6.72,32.58,32.58,0,0,1,11.59,10.33q4.29,6.33,4.29,16.07a34.76,34.76,0,0,1-6.23,20.65q-6.24,8.76-17.73,13.63T1011.9,568.3Z"/><path d="M1147.67,566.74V428.05h13.24l56.3,128h-7.4l55.71-128h13.24V566.74H1264V449.09l6,.78-51,116.87h-11.3l-51.81-116.87,6.43-.78.19,117.65Z"/><path d="M1371.48,566.74V428.05h16V566.74Z"/><path d="M1513.68,566.74v-125h-48.3V428.05h112.78v13.64h-48.31V566.74Z"/><path d="M1656.08,566.74V428.05h15.77V566.74Zm7.4-63.69V489.6H1764v13.45ZM1755,566.74V428.05h16V566.74Z"/><path d="M1907.75,568.3a103.65,103.65,0,0,1-20.07-1.85,68,68,0,0,1-17.33-5.84,63.38,63.38,0,0,1-14.42-9.84l6-12.27A68.48,68.48,0,0,0,1883.11,551q10.61,3.7,24.83,3.71,16.56,0,25.72-6.53t9.15-18.41q0-7.2-4.58-11.59a32.63,32.63,0,0,0-12.46-7q-7.89-2.62-17.83-5-9.93-2.15-18.89-5a70,70,0,0,1-15.88-7.12,31.57,31.57,0,0,1-10.81-10.9q-3.9-6.63-3.89-16.56a36,36,0,0,1,6.23-20.94,41,41,0,0,1,17.53-14.12q11.3-5.07,26.69-5.07a80,80,0,0,1,18.31,2.05,69,69,0,0,1,16.26,5.94,57,57,0,0,1,13.35,9.54l-6.24,12.27A65.92,65.92,0,0,0,1930.93,444a61,61,0,0,0-22-3.89q-16.17,0-25.33,6.82T1874.44,466q0,7.59,4.09,12.27a28.35,28.35,0,0,0,11.49,7.5,144.53,144.53,0,0,0,17,5.16q10.13,2.34,19.48,5.06a83.55,83.55,0,0,1,16.65,6.72,32.58,32.58,0,0,1,11.59,10.33q4.29,6.33,4.29,16.07a34.76,34.76,0,0,1-6.23,20.65q-6.24,8.76-17.73,13.63T1907.75,568.3Z"/><path d="M2190.78,566.74l-48.7-138.69h16.36l42.47,125.06h-6.24l43.44-125.06,12.27.2L2293,553.11h-6l42.85-125.06h15.78l-48.5,138.69H2283.5l-41.69-119.6h4.29l-41.88,119.6Z"/><path d="M2482.58,568.3q-19.48,0-33.6-8.57a56.59,56.59,0,0,1-21.82-24.54q-7.69-16-7.69-37.79,0-22,7.59-37.89a56.28,56.28,0,0,1,21.72-24.45q14.13-8.56,33.8-8.57,19.47,0,33.7,8.57a56.06,56.06,0,0,1,21.82,24.45q7.59,15.87,7.59,37.69,0,22-7.69,38a56.66,56.66,0,0,1-21.82,24.54Q2502.05,568.31,2482.58,568.3Zm0-13.63q22,0,34.28-14.91t12.27-42.56q0-27.66-12.27-42.37t-34.28-14.7q-22,0-34.38,14.8t-12.37,42.27q0,27.46,12.37,42.47T2482.58,554.67Z"/><path d="M2691.4,568.3q-19.49,0-33.61-8.57A56.64,56.64,0,0,1,2636,535.19q-7.71-16-7.7-37.79,0-22,7.6-37.89a56.16,56.16,0,0,1,21.72-24.45q14.12-8.56,33.8-8.57,19.47,0,33.69,8.57a56,56,0,0,1,21.82,24.45q7.61,15.87,7.6,37.69,0,22-7.7,38A56.64,56.64,0,0,1,2725,559.73Q2710.87,568.31,2691.4,568.3Zm0-13.63q22,0,34.28-14.91T2738,497.2q0-27.66-12.27-42.37t-34.28-14.7q-22,0-34.39,14.8t-12.37,42.27q0,27.46,12.37,42.47T2691.4,554.67Z"/><path d="M2842.16,566.74V428.05h46.56q22.2,0,37.79,8.08a54.81,54.81,0,0,1,23.76,23.57q8.19,15.49,8.19,37.5,0,22.21-8.28,37.69a55.93,55.93,0,0,1-23.87,23.67q-15.58,8.19-37.59,8.18Zm16-13.63h29.61q26.88,0,40.42-14t13.53-41.88q0-55.51-53.95-55.51h-29.61Z"/><path d="M3155.19,566.74V428.05h85.71v13.44H3171V489.6h66v13.45h-66v63.69Z"/><path d="M3323.3,566.74V428.05h16V566.74Z"/><path d="M3432,566.74V428.05h12.27L3532.7,545.9l-4.68,1.17v-119h15.2V566.74h-12.47l-88.24-117.65,4.48-1.37v119Z"/><path d="M3635.74,566.74V428.05h46.56q22.2,0,37.79,8.08a54.81,54.81,0,0,1,23.76,23.57q8.19,15.49,8.18,37.5,0,22.21-8.27,37.69a56,56,0,0,1-23.87,23.67q-15.58,8.19-37.59,8.18Zm16-13.63h29.6q26.89,0,40.42-14t13.54-41.88q0-55.51-54-55.51h-29.6Z"/><path d="M3839.49,566.74V428.05h87.66V441.3h-71.88v48.3h68v13.45h-68V553.5h71.88v13.24Z"/><path d="M4012.47,566.74V428.05h55.13q22.4,0,34.38,9.93t12,28.64q0,17.92-12.18,28.15T4067.6,505l14.41-2.72a20.78,20.78,0,0,1,13,4.18q5.46,4.2,8.77,13.35l17.53,46.94h-16.95l-17.14-46.16q-3.32-8.78-9.06-11.59t-15.29-2.83h-34.67v60.58Zm15.78-73.82h38q16.17,0,24.06-6.63t7.89-19.48q0-12.85-7.79-19.18t-24.16-6.33h-38Z"/></g></svg>