<?xml version="1.0" encoding="utf-8"?>
<!-- Generator: Adobe Illustrator 24.3.0, SVG Export Plug-In . SVG Version: 6.00 Build 0)  -->
<svg version="1.1" id="Layer_1" xmlns="http://www.w3.org/2000/svg" xmlns:xlink="http://www.w3.org/1999/xlink" x="0px" y="0px"
	 viewBox="0 0 400 400" style="enable-background:new 0 0 400 400;" xml:space="preserve">
<style type="text/css">
	.st0{fill:#FFFFFF;}
</style>
<g>
	<path d="M54.8,330.5c0-1.7,0-3.4,0-5.2c0-2.8-1.3-4.5-4.1-5c-3.3-0.6-6.6-1.1-9.8-1.7c-3.5-0.6-4.9-2.6-4.4-6
		c0.5-3.1,1-6.2,1.6-9.3c0.6-3.3-0.5-5.1-3.6-6.1c-3-1-6-1.9-9-2.9c-3.5-1.2-4.6-3.4-3.5-6.9c1-3,1.9-6,2.9-9c1-3,0.1-5.1-2.8-6.4
		c-2.8-1.4-5.7-2.8-8.5-4.2c-3.2-1.6-4.1-4-2.5-7.2c1.4-2.9,2.8-5.7,4.2-8.6c1.4-2.9,0.9-4.8-1.7-6.6c-2.7-1.9-5.4-3.7-8.1-5.6
		c-2.8-2-3.2-4.5-1.2-7.4c1.8-2.6,3.6-5.2,5.4-7.8c1.8-2.7,1.7-4.7-0.7-6.9c-2.4-2.2-4.8-4.5-7.2-6.7c-2.4-2.3-2.5-4.7-0.3-7.2
		c2.2-2.4,4.5-4.8,6.7-7.2c2.2-2.4,2.3-4.4,0.3-7c-1.9-2.4-3.9-4.8-5.8-7.2c-2.4-3.1-2.2-5.4,0.9-7.9c2.4-1.9,4.8-3.8,7.2-5.8
		c2.4-1.9,2.8-4.1,1.2-6.8c-1.6-2.8-3.2-5.5-4.9-8.3c-1.8-3-1.1-5.4,1.9-7.2c2.9-1.7,5.7-3.4,8.6-5.1c2.5-1.5,3.1-3.5,2-6.2
		c-1.2-3.1-2.5-6.2-3.7-9.3c-1.2-3-0.3-5.3,2.7-6.5c3.1-1.3,6.2-2.5,9.2-3.8c2.9-1.2,3.9-3,3.2-6c-0.7-3.2-1.5-6.3-2.3-9.5
		c-0.8-3.4,0.5-5.5,3.9-6.3c3.1-0.7,6.2-1.5,9.3-2.3c3-0.8,4.2-2.3,4-5.4c-0.2-3.3-0.5-6.6-0.9-9.9c-0.3-3.3,1.4-5.3,4.7-5.6
		c3.4-0.3,6.9-0.6,10.3-1c2.5-0.3,3.9-1.8,4.1-4.3c0.2-3.5,0.4-7,0.6-10.5c0.2-3.1,2.2-4.8,5.3-4.7c3.4,0.2,6.8,0.4,10.2,0.5
		c2.8,0.1,4.4-1.2,5.1-4c0.7-3.1,1.4-6.3,2-9.4c0.7-3.7,2.7-5.1,6.3-4.4c3.1,0.6,6.2,1.2,9.2,1.9c3.1,0.7,5.1-0.3,6.2-3.3
		c1.1-3.1,2.2-6.2,3.3-9.2c1.2-3.2,3.4-4.2,6.6-3.1c3,1,5.9,2.1,8.9,3.2c3.2,1.2,5.2,0.4,6.8-2.5c1.6-2.9,3.1-5.8,4.7-8.6
		c1.5-2.7,4-3.4,6.8-2c2.9,1.6,5.9,3.2,8.8,4.7c2.7,1.4,4.7,0.9,6.5-1.5c2-2.7,3.9-5.4,6-8c2-2.6,4.5-2.9,7.1-1
		c2.6,1.9,5.2,3.9,7.9,5.9c2.5,1.9,4.6,1.7,6.8-0.5c2.4-2.3,4.7-4.7,7.1-7.1c2.3-2.2,4.8-2.2,7.1,0c2.4,2.3,4.7,4.7,7.1,7.1
		c2.3,2.2,4.3,2.3,6.8,0.4c2.6-2,5.2-3.9,7.9-5.9c2.6-1.9,5.2-1.5,7.1,1.1c2,2.7,4,5.5,6.1,8.1c1.7,2.2,3.8,2.7,6.3,1.4
		c3-1.6,6-3.2,9-4.8c2.9-1.5,5.2-0.8,6.8,2c1.6,2.9,3.1,5.9,4.7,8.8c1.5,2.7,3.5,3.5,6.4,2.4c3.1-1.1,6.3-2.2,9.4-3.4
		c2.8-1,5.3,0.1,6.3,2.9c1.2,3.2,2.3,6.4,3.5,9.5c1,2.8,3,3.9,5.8,3.4c3.1-0.6,6.3-1.3,9.4-1.9c3.6-0.8,5.6,0.6,6.4,4.1
		c0.7,3.3,1.3,6.5,2,9.8c0.6,2.7,2.2,4,4.9,3.9c3.4-0.1,6.9-0.3,10.3-0.5c3.3-0.1,5,1.4,5.2,4.7c0.2,3.3,0.4,6.5,0.6,9.8
		c0.1,3,1.6,4.7,4.6,5.1c3.1,0.3,6.3,0.6,9.4,0.8c3.8,0.3,5.6,2.4,5.1,6.1c-0.4,3.1-0.7,6.3-0.9,9.4c-0.2,3.1,1.1,4.8,4.1,5.5
		c3.1,0.7,6.1,1.5,9.2,2.2c3.6,0.9,4.8,2.9,4,6.6c-0.7,2.9-1.4,5.8-2.1,8.6c-0.9,3.6,0.1,5.5,3.5,6.9c2.9,1.1,5.7,2.3,8.6,3.5
		c3.1,1.2,4.2,3.6,2.9,6.7c-1.2,3-2.5,6-3.7,9.1c-1.2,3-0.4,5,2.3,6.6c2.8,1.6,5.6,3.2,8.3,4.9c2.9,1.7,3.5,4.2,1.8,7.1
		c-1.6,2.8-3.3,5.5-4.9,8.3c-1.6,2.8-1.2,5,1.4,7c2.5,2,4.9,3.9,7.4,5.9c2.6,2.1,3,4.6,0.9,7.3c-2,2.6-4.1,5.1-6.1,7.7
		c-2.2,2.8-1.9,5.1,0.7,7.5c2.4,2.3,4.6,4.8,6.8,7.3c1.6,1.8,1.3,4.5-0.7,6.4c-2.3,2.2-4.7,4.4-7.1,6.6c-2.7,2.5-2.9,4.3-0.9,7.3
		c1.8,2.7,3.6,5.3,5.4,7.9c1.8,2.6,1.3,5.1-1.3,6.9c-2.7,1.9-5.4,3.7-8.1,5.6c-2.7,1.8-3.2,3.8-1.8,6.7c1.3,2.8,2.8,5.7,4.2,8.5
		c1.7,3.4,0.9,5.7-2.6,7.4c-2.8,1.4-5.5,2.7-8.3,4.1c-2.9,1.4-3.8,3.4-2.8,6.4c1,3.1,2,6.1,2.9,9.1c1.1,3.4-0.1,5.6-3.6,6.7
		c-3,1-6,1.9-9,2.9c-3,1-4.2,2.8-3.7,6c0.5,3.2,1.1,6.3,1.6,9.5c0.6,3.2-0.9,5.4-4,6c-3.3,0.6-6.5,1.2-9.8,1.7
		c-3.1,0.5-4.6,2.3-4.5,5.4c0.1,3.2,0.2,6.4,0.2,9.6c0.1,3.4-1.8,5.3-5.2,5.3c-3.1,0.1-6.2,0-9.3,0.1c-3.5,0.1-5.1,1.6-5.5,5
		c-0.4,3.2-0.8,6.5-1.3,9.7c-0.5,3.1-2.3,4.5-5.4,4.1c-3.2-0.3-6.4-0.8-9.5-1.2c-3.4-0.5-5.4,0.7-6.3,4c-0.8,3-1.7,6.1-2.5,9.1
		c-0.9,3.3-3.2,4.6-6.5,3.6c-3.2-0.9-6.4-1.8-9.6-2.7c-2.6-0.7-4.7,0.2-5.8,2.7c-1.3,2.8-2.5,5.5-3.7,8.3c-1.9,4.2-3.9,5-8,3.2
		c-2.8-1.2-5.5-2.5-8.3-3.7c-2.7-1.2-4.7-0.6-6.3,1.9c-1.7,2.6-3.4,5.3-5.1,8c-2.1,3.4-4.5,3.9-7.8,1.9c-2.7-1.7-5.4-3.5-8.1-5.2
		c-2.4-1.5-4.6-1.2-6.5,1c-2.2,2.5-4.4,5.1-6.7,7.7c-2,2.3-4.6,2.5-6.9,0.5c-2.3-1.9-4.6-3.8-6.7-5.8c-2.6-2.4-4.9-3.4-8.6-0.1
		c-2.2,2-4.5,3.9-6.7,5.8c-2.3,2-4.9,1.9-6.9-0.4c-2.2-2.5-4.4-5-6.5-7.6c-2.1-2.4-4.3-2.7-6.9-1c-2.8,1.8-5.5,3.5-8.3,5.2
		c-2.8,1.7-5.1,1.2-6.9-1.5c-1.8-2.7-3.5-5.5-5.3-8.3c-1.8-2.8-3.8-3.4-6.8-2.1c-2.7,1.2-5.4,2.4-8.1,3.7c-3.9,1.7-6,1-7.7-2.9
		c-1.2-2.8-2.5-5.5-3.7-8.3c-1.3-2.9-3.2-3.8-6.3-3c-3.2,0.9-6.4,1.8-9.6,2.6c-3,0.8-5.3-0.5-6.1-3.5c-0.9-3.1-1.7-6.2-2.6-9.3
		c-0.9-3.2-2.6-4.4-5.9-4.1c-3.2,0.4-6.4,0.8-9.5,1.2c-3.2,0.5-5.4-1-5.8-4.2c-0.5-3.1-0.8-6.1-1.2-9.2c-0.4-3.9-1.9-5.3-5.9-5.4
		c-3,0-5.9,0-8.9-0.1c-3.7-0.1-5.2-1.7-5.2-5.5c0-1.5,0-3.1,0-4.6C54.7,330.5,54.8,330.5,54.8,330.5z M376.1,200.6
		c0.4-97.2-78.3-175.8-174.6-176.6C103.4,23.2,24,102.7,23.9,199.9c-0.2,97.4,78.6,176.1,175,176.7
		C297.1,377.1,376.2,297.4,376.1,200.6z"/>
	<path class="st0" d="M376.1,200.6c0.1,96.8-79,176.5-177.3,175.9c-96.4-0.6-175.2-79.3-175-176.7C24,102.7,103.4,23.2,201.5,24
		C297.8,24.8,376.5,103.4,376.1,200.6z M30.5,200.3c0.4,93.8,76.1,169.5,169.1,169.5c93.6,0.1,170.1-75.8,169.8-170.1
		C369.2,106,293,30.4,199.4,30.7C106.2,31,30.6,106.6,30.5,200.3z"/>
	<path d="M30.5,200.3C30.6,106.6,106.2,31,199.4,30.7C293,30.4,369.2,106,369.5,199.8c0.3,94.3-76.2,170.2-169.8,170.1
		C106.6,369.8,30.9,294.1,30.5,200.3z M308,200.2C308,141,259.8,92.7,201.1,92.2C142.1,91.6,92,139.5,92,200.2
		c0,59.4,48.2,108,107.4,108.1C259.6,308.4,307.9,260.3,308,200.2z M107.5,117.8c-8.5-5.7-16.9-11.3-25.2-16.9
		C82.1,101,82,101,82,101c-1,1.5-2,2.9-3,4.4c-2.1,3.1-2.1,3.1,0.2,6c4.1,5.3,8.1,10.7,12.3,16.2c-0.5-0.1-0.7-0.1-0.9-0.1
		c-7-1.9-14-3.8-21-5.6c-0.6-0.1-1.5-0.1-1.8,0.3c-1.6,2.2-3.1,4.6-4.8,7c8.5,5.7,16.9,11.3,25.4,17c1.1-1.7,2.1-3.2,3.2-4.9
		c-6.6-4.4-13.1-8.8-19.9-13.4c0.6,0,0.7,0,0.9,0c6.6,1.8,13.2,3.5,19.8,5.3c4.1,1.1,4.1,1,6.4-2.4c0.6-0.8,0.6-1.4-0.1-2.2
		c-3-3.9-6-7.8-9-11.8c-1.7-2.3-3.5-4.6-5.2-6.9c0.1-0.1,0.2-0.2,0.3-0.3c6.4,4.3,12.9,8.6,19.4,12.9
		C105.3,121,106.4,119.4,107.5,117.8z M247.9,337c-0.2,0.2-0.4,0.3-0.6,0.5c-0.4-0.6-0.7-1.2-1.2-1.8c-4.9-5.2-9.8-10.4-14.7-15.6
		c-0.4-0.4-1-1-1.4-0.9c-2.4,0.6-4.8,1.5-7.4,2.3c3.1,10,6.1,19.8,9.2,29.6c2.1-0.7,3.8-1.2,5.6-1.8c-2.3-7.3-4.4-14.4-6.6-21.4
		c0.4,0,0.6,0.2,0.8,0.4c5.2,5.5,10.3,11,15.5,16.5c0.4,0.5,1.2,1.1,1.7,1c2.5-0.6,4.9-1.4,7.3-2.2c-3.1-10-6.1-19.8-9.2-29.6
		c-1.9,0.6-3.7,1.2-5.6,1.8C243.6,322.9,245.8,330,247.9,337z M143.5,57.6c3.1,6.9,6.1,13.6,9.1,20.2c-0.7-0.3-1.2-0.7-1.7-1.1
		c-5.5-4.6-11-9.1-16.5-13.7c-0.4-0.3-1.1-0.8-1.5-0.7c-2.3,0.9-4.6,2-6.9,3.1c4.2,9.4,8.3,18.6,12.5,27.9c1.8-0.8,3.5-1.6,5.3-2.4
		c-3.1-6.9-6.1-13.6-9.1-20.3c6.2,4.8,12.1,9.8,18.1,14.7c0.5,0.4,1.3,0.9,1.8,0.7c2.3-0.9,4.4-1.9,6.8-3
		c-4.2-9.3-8.3-18.5-12.5-27.9C147,56,145.4,56.8,143.5,57.6z M42.5,195.9c0,0.1-0.1,0.3-0.1,0.4c3.4,2.5,6.9,5.1,10.4,7.5
		c0.9,0.6,1.1,1.2,0.7,2.2c-0.9,2.3-1.6,4.7-2.4,7.1c-0.6,1.7-1.1,3.5-1.7,5.6c4.2-3.1,8.1-5.8,11.9-8.6c3.9,2.8,7.8,5.6,12,8.7
		c-1.6-5-3.1-9.5-4.6-14c3.9-2.8,7.8-5.6,11.7-8.4c-4.3-0.3-8.4-0.3-12.5-0.3c-1.2,0-2.1-0.2-2.6-1.7c-1.1-4-2.6-7.9-4-12.2
		c-0.3,0.8-0.5,1.2-0.6,1.6c-1.2,3.5-2.4,7.1-3.5,10.6c-0.4,1.4-1,1.7-2.4,1.7C50.8,195.8,46.7,195.9,42.5,195.9z M338.7,181.9
		c-1.4,4.3-2.7,8.1-3.8,12c-0.5,1.7-1.3,2.2-3,2.1c-4-0.1-8,0-12,0c3.3,2.8,6.8,5.4,10.2,7.8c1,0.7,1.3,1.3,0.7,2.3
		c-0.2,0.4-0.3,0.9-0.5,1.3c-1.2,3.6-2.3,7.2-3.6,11.3c4.2-3.1,8.1-5.8,12-8.7c3.9,2.8,7.8,5.6,12,8.7c-1.4-4.3-2.6-8.1-3.9-11.9
		c-0.6-1.6-0.4-2.5,1.1-3.5c3.3-2.2,6.5-4.7,9.7-7c-4-0.4-7.9-0.5-11.8-0.3c-2.1,0.1-2.9-0.6-3.4-2.5
		C341.4,189.7,340.1,186,338.7,181.9z M112.6,76.9c-3.8,0.2-6.8,1.8-9.5,4C97.8,85,95.9,91,98,96.8c1.4,3.8,3.8,6.9,6.9,9.3
		c8.1,6.1,20.2,1.8,23.3-8.2c0.5-1.5,0.7-3.2,0.5-4.7c-0.8-6.8-4.7-11.5-10.6-14.7C116.5,77.6,114.5,77.4,112.6,76.9z M107.2,284.9
		c-2-5-4.6-9.5-8.8-12.9c-2.2-1.8-4.7-3-7.6-3.1c-6.2-0.1-10.7,3.3-14.5,7.6c-3.1,3.4-4.2,7.6-3,12.1c1.8,6.3,6.5,10.2,11.8,13.5
		c0.3,0.2,1.2-0.1,1.7-0.4c2.4-1.7,4.7-3.5,7-5.2c1.4-1.1,2.9-2.2,4.3-3.4c-2.6-3.4-5.1-6.7-7.6-10c-1.4,1.1-2.7,2-4,3.1
		c1.4,1.8,2.6,3.5,3.9,5.2c-4.8,4.8-6.7,4.7-10-0.3c-1.8-2.8-2.3-5.7-0.3-8.7c2.4-3.7,5.7-6.2,10-7.2c0.7-0.2,1.4-0.1,2.1,0
		c3.5,0.6,5.8,2.9,7.5,5.8c1.3,2.2,2.4,4.5,3.6,6.9C104.5,286.9,105.8,285.9,107.2,284.9z M251.6,71.7c5.2-0.5,7.1-2.1,7.4-6.8
		c0.2-3.2-1.2-5.8-4-7.2c-4.1-2-8.5-3.6-12.9-5.4c-3.5,9.9-6.9,19.4-10.3,29c2.5,0.9,4.7,1.8,7,2.4c2.8,0.7,5.8,1.5,8.7,1.7
		c3.7,0.2,6.6-2.2,7.7-5.8c1-3,0-5.2-3.3-7.7C251.9,71.9,251.9,71.9,251.6,71.7z M182.7,354c-0.5-3.9-1.1-7.6-1.5-11.4
		c-0.2-2-0.7-3.8-2.6-5c4.1-1.3,5.7-2.8,6.1-5.6c0.8-5-1.1-8.4-5.9-9.9c-4.1-1.2-8.3-1.9-12.6-2.9c-1.9,10.3-3.8,20.4-5.7,30.7
		c2.1,0.4,4,0.7,6.1,1.1c0.8-4.2,1.6-8.2,2.3-12.2c5.2,0.4,5.5,0.9,5.9,4.9c0.3,2.7,0.6,5.4,1.1,8.1c0.1,0.4,0.6,1.1,1,1.2
		C178.6,353.3,180.6,353.6,182.7,354z M190.8,354.7c1.5,0,2.9-0.1,4.2,0c1.8,0.1,2.9-0.5,3.2-2.4c0.2-1.2,0.8-2.4,1.1-3.6
		c0.3-1.2,0.8-1.8,2.1-1.8c3-0.1,5.9-0.3,8.9-0.4c0.6,0,1.4,0.6,1.6,1.1c0.9,1.9,1.7,3.9,2.6,6c2.2-0.1,4.3-0.3,6.6-0.4
		c-0.1-0.4-0.2-0.6-0.2-0.8c-4-9.5-8-19-12.1-28.5c-0.2-0.5-1-0.9-1.6-0.9c-1.8,0-3.6,0.3-5.3,0.2c-1.1,0-1.4,0.4-1.7,1.3
		c-1.4,4.5-2.8,9-4.2,13.4C194.3,343.5,192.5,349.1,190.8,354.7z M150.7,347.3c0-0.6,0.1-0.9,0.1-1.3c0.6-9.6,1.1-19.2,1.7-28.8
		c0.2-2.8,0.2-2.8-2.5-4c-1-0.4-2-0.8-2.9-1.3c-1.2-0.7-1.9-0.4-2.9,0.6c-5.8,6.2-11.6,12.2-17.4,18.3c-1.3,1.4-2.6,2.8-4,4.3
		c1.7,0.8,3.3,1.4,4.8,2.1c1,0.5,1.7,0.4,2.5-0.5c1.4-1.6,2.8-3,4.3-4.6c3.2,1.4,6.4,2.8,9.5,4.1c1.1,0.4,1.3,1,1.2,2
		c-0.2,2.1-0.2,4.1-0.4,6.3C146.5,345.5,148.5,346.3,150.7,347.3z M279.8,69.3c-8.7,6.6-17.2,13.1-26,19.7c1.7,1.1,3.1,2,4.5,2.9
		c0.8,0.6,1.4,0.5,2.2-0.1c1.6-1.3,3.3-2.5,5-3.8c2.7,1.7,5.3,3.5,8,5.1c1.4,0.8,1.6,1.9,1.3,3.3c-0.4,1.5-0.7,3-1,4.5
		c-0.1,0.4,0.2,1,0.5,1.3c1.5,1.1,3.2,2.1,4.8,3.1c0.2-0.5,0.3-0.8,0.4-1.2c1.2-5.2,2.4-10.4,3.5-15.6c1-4.5,2-8.9,2.9-13.4
		c0.1-0.7-0.1-1.7-0.6-2.1C283.6,71.6,281.7,70.5,279.8,69.3z M112.6,289c-4.2,5.3-8.3,10.4-12.3,15.7c-3.5,4.6-3.3,10.1,0.4,14.6
		c5.2,6.4,13.7,7.4,18.7,1.9c4.7-5.2,8.8-10.9,13.2-16.5c-1.7-1.3-3.3-2.6-4.9-3.8c-0.3,0.4-0.6,0.7-0.8,0.9
		c-3.9,5-7.8,9.9-11.7,14.9c-1.2,1.5-2.6,2.9-4.7,2.8c-3.1-0.1-5.2-2-6.7-4.5c-1.3-2.2-0.3-4.2,1.1-6.1c2.8-3.5,5.5-7,8.3-10.5
		c1.4-1.8,2.8-3.6,4.3-5.6C115.8,291.6,114.3,290.4,112.6,289z M311.8,147.3c0.3-0.6,0.5-1.1,0.7-1.6c2-4.7,4-9.4,5.9-14.1
		c0.4-0.9,0.8-1.4,1.9-1.3c3.2,0.2,6.4,0.4,9.6,0.5c2.4,0.1,4.9,0,7.4,0c-0.9-1.5-1.8-3.1-2.9-4.6c-0.4-0.5-1.2-1-1.8-1
		c-3.9-0.2-7.7-0.3-11.6-0.2c-2.1,0-3.4-0.6-3.9-2.7c3.5-2.2,7.1-4.4,10.8-6.7c-1.1-1.7-2-3.3-3.1-5c-8.7,5.4-17.3,10.7-26,16.1
		c1.1,1.7,2.1,3.3,3.1,4.9c3.7-2.2,7.2-4.4,10.7-6.6c1.5,1.4,1.8,2.8,0.8,4.5c-1.1,2.1-2,4.4-3,6.7c-0.8,1.8-2.3,3.8-2.1,5.5
		c0.1,1.8,1.9,3.5,2.9,5.2C311.5,147,311.6,147,311.8,147.3z M294.2,321.3c4.7-4.1,9.2-8.1,13.7-12.1c-1.2-1.3-2.2-2.5-3.3-3.7
		c-3,2.7-6,5.3-9,8c-1.9-2.2-3.8-4.3-5.7-6.4c2.7-2.4,5.4-4.8,8.2-7.3c-1.2-1.3-2.2-2.5-3.3-3.7c-2.8,2.5-5.5,4.9-8.2,7.3
		c-1.7-1.9-3.3-3.7-5-5.6c2.8-2.5,5.5-4.9,8.2-7.3c-0.9-1.5-1.6-2.9-2.5-4.4c-4.6,4.1-9.1,8.1-13.7,12.2
		C280.5,305.9,287.3,313.5,294.2,321.3z M291.4,281.3c8.4,6.3,16.5,12.4,24.8,18.6c3.7-5,7.3-9.7,11-14.6c-1.3-1-2.6-2-3.9-3
		c-2.5,3.3-4.9,6.4-7.3,9.6c-2.4-1.8-4.6-3.5-6.8-5.2c2.3-3,4.4-5.8,6.6-8.8c-1.3-1-2.6-1.9-3.9-3c-2.2,2.9-4.4,5.7-6.6,8.6
		c-2.1-1.5-4.1-2.9-6-4.4c2.3-3,4.4-5.9,6.6-8.8c-1.1-1.3-2.2-2.5-3.3-3.8C298.7,271.6,295.1,276.4,291.4,281.3z M161.6,51.7
		c2,10,4,19.9,6,29.9c6-1.2,11.8-2.3,17.8-3.5c-0.4-1.8-0.7-3.3-1.1-4.9c-3.9,0.7-7.6,1.4-11.6,2.2c-0.6-2.8-1.1-5.4-1.7-8.2
		c3.7-0.8,7.1-1.5,10.7-2.2c-0.4-1.7-0.7-3.2-1.1-4.7c-3.7,0.7-7.1,1.4-10.6,2.1c-0.5-2.5-1-4.8-1.5-7.2c3.6-0.7,7.1-1.5,10.6-2.2
		c0-1.7,0-3.3,0-4.9c-5.6,1.1-11,2.2-16.5,3.3C162.4,51.4,162.1,51.5,161.6,51.7z M314.2,105.7c4.1-3.8,3.9-2.2,1.1-7
		c-0.2-0.3-0.4-0.6-0.6-0.9c-3.5-4.5-7.9-7.5-13.9-6.6c-6,0.9-10,4.8-12.9,9.7c-1,1.7-1.6,3.8-1.8,5.9c-0.7,7,5,12.7,10.6,15.3
		c0.3,0.1,0.7,0.1,0.9-0.1c1-0.9,2-1.9,2.7-2.6c-2.4-2-4.8-3.7-6.7-5.8c-2.2-2.4-2.5-5.5-0.8-8.3c1.5-2.4,3.4-4.6,5.6-6.3
		c4.2-3.3,8.5-2.7,12,1.2C311.8,101.9,312.9,103.9,314.2,105.7z M188.7,47.6c0.2,0.3,0.3,0.5,0.4,0.7c3,5.3,6,10.5,9,15.8
		c0.5,0.9,0.8,2,0.8,3c0.1,3.4,0,6.8,0,10.3c1.9,0,3.8,0,6,0c0-3.5,0-7,0-10.4c0-0.8,0.3-1.6,0.7-2.3c1.7-2.8,3.6-5.6,5.4-8.4
		c1.7-2.7,3.4-5.4,5.3-8.4c-1.8,0-3.2,0.1-4.6,0c-1.3-0.1-2,0.3-2.7,1.4c-2.1,3.6-4.4,7.1-6.7,10.9c-2.3-3.9-4.5-7.7-6.7-11.4
		c-0.3-0.5-0.9-1.1-1.4-1.1C192.4,47.5,190.7,47.6,188.7,47.6z M278.6,331.8c-4.4-7.6-8.7-15.1-13.1-22.6c2.8-1.6,5.2-3.1,7.7-4.5
		c-0.9-1.5-1.7-2.8-2.5-4.1c-7,4.1-13.8,8-20.7,12c0.9,1.5,1.6,2.8,2.5,4.2c2.6-1.5,5.1-2.9,7.7-4.4c2.2,3.8,4.4,7.5,6.6,11.2
		c2.2,3.7,4.3,7.5,6.5,11.4C275.1,333.9,276.7,332.9,278.6,331.8z"/>
	<path class="st0" d="M308,200.2c-0.1,60.1-48.3,108.1-108.6,108.1C140.2,308.2,92,259.6,92,200.2c0-60.7,50-108.6,109.1-108.1
		C259.8,92.7,308,141,308,200.2z M143.7,200.2c0.1,0,0.2,0,0.4,0c0,2.8-0.1,5.6,0,8.4c0.1,5.3,0.8,10.5,3.1,15.4
		c6,13,23.3,13.1,30.3,3.6c3.1-4.3,4.7-9.1,4.9-14.3c0.3-7.1,0.4-14.1,0.3-21.2c0-4.7-0.6-9.5-2.4-14c-4.6-11.6-18.4-15.8-27.9-8.4
		c-4.3,3.4-6.7,8-7.4,13.2C144.3,188.7,144.2,194.5,143.7,200.2z M190.1,200.2c0.1,0,0.1,0,0.2,0c0,2.6,0,5.2,0,7.8
		c0,5.1,0.6,10.1,2.6,14.8c3.1,7.3,9.2,11.4,16.9,11.4c7.6,0,13.6-4.2,16.7-11.5c1.7-4.2,2.4-8.7,2.5-13.2c0.1-6.2,0.1-12.4,0-18.5
		c-0.1-4.5-0.8-9-2.5-13.2c-5.3-13.1-20.2-14.6-28.5-7.3c-4.5,4-6.5,9.4-7.1,15.3C190.3,190.6,190.3,195.4,190.1,200.2z
		 M134.4,233.3c0-22.1,0-44,0-66.1c-7.7,0.8-15.3,1.6-22.8,2.3c0,3.3,0,6.3,0,9.5c3.9,0,7.6,0,11.5,0c0,18.2,0,36.1,0,54.2
		c0.8,0,1.3,0,1.9,0C128.1,233.3,131.2,233.3,134.4,233.3z M236.4,181.6c0,1,0,2.2,0,3.4c0.3,6.2,4.7,11.3,10.3,11.9
		c7.4,0.7,12.4-2.4,14-9.3c1-4.2,1-8.5-0.2-12.7c-1.3-4.4-4.1-7.5-8.8-8.3c-5.2-0.9-9.7,0.1-12.9,4.7
		C236.7,174.3,236.2,177.8,236.4,181.6z M288.5,218.9c0-1.2,0.1-2.4,0-3.6c-0.4-6.4-4.8-11.1-11-11.7c-6.7-0.6-11.9,2.8-13.2,9.4
		c-0.7,3.5-0.6,7.2-0.3,10.8c0.5,5.2,4.6,9.4,9.3,10.2c6,1.1,10.8-0.9,13.5-5.6C288.4,225.4,288.8,222.2,288.5,218.9z M273.1,173.3
		c-9.3,17.3-18.6,34.4-27.9,51.7c2,1.2,3.8,2.3,5.6,3.4c9.4-17.3,18.6-34.4,27.9-51.6C276.8,175.6,275.1,174.5,273.1,173.3z"/>
	<path class="st0" d="M107.5,117.8c-1.1,1.7-2.1,3.2-3.2,4.9c-6.5-4.4-12.9-8.6-19.4-12.9c-0.1,0.1-0.2,0.2-0.3,0.3
		c1.7,2.3,3.4,4.6,5.2,6.9c3,3.9,5.9,7.9,9,11.8c0.6,0.8,0.6,1.3,0.1,2.2c-2.3,3.5-2.3,3.5-6.4,2.4c-6.6-1.7-13.2-3.5-19.8-5.3
		c-0.2,0-0.3,0-0.9,0c6.8,4.6,13.3,8.9,19.9,13.4c-1.1,1.7-2.1,3.2-3.2,4.9c-8.5-5.7-16.9-11.3-25.4-17c1.6-2.4,3.1-4.8,4.8-7
		c0.3-0.4,1.2-0.4,1.8-0.3c7,1.8,14,3.7,21,5.6c0.2,0.1,0.4,0.1,0.9,0.1c-4.2-5.5-8.3-10.8-12.3-16.2c-2.2-2.9-2.3-2.9-0.2-6
		c1-1.5,2-3,3-4.4c0,0,0.1,0,0.3-0.1C90.6,106.5,99,112.1,107.5,117.8z"/>
	<path class="st0" d="M247.9,337c-2.2-7-4.4-14.1-6.6-21.3c1.9-0.6,3.7-1.2,5.6-1.8c3.1,9.8,6.1,19.6,9.2,29.6
		c-2.5,0.8-4.9,1.6-7.3,2.2c-0.5,0.1-1.2-0.5-1.7-1c-5.2-5.5-10.4-11-15.5-16.5c-0.2-0.2-0.3-0.3-0.8-0.4c2.2,7.1,4.4,14.1,6.6,21.4
		c-1.8,0.6-3.6,1.2-5.6,1.8c-3.1-9.8-6.1-19.6-9.2-29.6c2.6-0.8,5-1.6,7.4-2.3c0.4-0.1,1,0.5,1.4,0.9c4.9,5.2,9.8,10.4,14.7,15.6
		c0.5,0.5,0.8,1.2,1.2,1.8C247.5,337.3,247.7,337.2,247.9,337z"/>
	<path class="st0" d="M143.5,57.6c1.9-0.8,3.6-1.6,5.3-2.4c4.2,9.3,8.3,18.5,12.5,27.9c-2.3,1.1-4.5,2.1-6.8,3
		c-0.5,0.2-1.3-0.3-1.8-0.7c-6-4.9-11.9-9.9-18.1-14.7c3,6.7,6,13.4,9.1,20.3c-1.8,0.8-3.5,1.6-5.3,2.4c-4.1-9.3-8.3-18.4-12.5-27.9
		c2.3-1.1,4.6-2.2,6.9-3.1c0.3-0.1,1.1,0.3,1.5,0.7c5.5,4.5,11,9.1,16.5,13.7c0.5,0.4,1,0.8,1.7,1.1
		C149.5,71.2,146.6,64.5,143.5,57.6z"/>
	<path class="st0" d="M42.5,195.9c4.1,0,8.3,0,12.4,0c1.3,0,2-0.3,2.4-1.7c1-3.6,2.3-7.1,3.5-10.6c0.1-0.4,0.3-0.8,0.6-1.6
		c1.4,4.3,2.9,8.2,4,12.2c0.4,1.6,1.3,1.7,2.6,1.7c4.1,0,8.2,0,12.5,0.3c-3.9,2.8-7.8,5.6-11.7,8.4c1.5,4.6,2.9,9,4.6,14
		c-4.2-3-8.1-5.8-12-8.7c-3.9,2.8-7.7,5.6-11.9,8.6c0.7-2.1,1.2-3.9,1.7-5.6c0.8-2.4,1.5-4.7,2.4-7.1c0.4-1,0.2-1.6-0.7-2.2
		c-3.5-2.5-6.9-5-10.4-7.5C42.4,196.1,42.5,196,42.5,195.9z"/>
	<path class="st0" d="M338.7,181.9c1.3,4.2,2.6,7.8,3.7,11.6c0.5,1.9,1.3,2.6,3.4,2.5c3.9-0.2,7.8-0.1,11.8,0.3
		c-3.2,2.4-6.4,4.8-9.7,7c-1.5,1-1.7,1.9-1.1,3.5c1.4,3.8,2.5,7.6,3.9,11.9c-4.2-3.1-8.1-5.8-12-8.7c-3.9,2.8-7.7,5.6-12,8.7
		c1.3-4.1,2.5-7.7,3.6-11.3c0.1-0.5,0.2-0.9,0.5-1.3c0.5-1,0.2-1.6-0.7-2.3c-3.5-2.4-6.9-5-10.2-7.8c4,0,8-0.1,12,0
		c1.7,0.1,2.5-0.4,3-2.1C336,190,337.3,186.2,338.7,181.9z"/>
	<path class="st0" d="M112.6,76.9c1.9,0.5,3.9,0.8,5.6,1.7c5.8,3.2,9.7,7.9,10.6,14.7c0.2,1.5-0.1,3.2-0.5,4.7
		c-3.1,10-15.2,14.2-23.3,8.2c-3.2-2.4-5.6-5.5-6.9-9.3c-2.1-5.9-0.2-11.8,5.1-16C105.9,78.7,108.9,77.1,112.6,76.9z M122.9,95.6
		c0-4.7-5.3-11.5-9.9-12.6c-5.3-1.3-10.6,3.3-9.8,8.7c0.8,5.4,4.1,9.4,9.1,11.4C117.2,105.1,122.9,100.8,122.9,95.6z"/>
	<path class="st0" d="M107.2,284.9c-1.4,1-2.7,2.1-4,3c-1.2-2.4-2.2-4.7-3.6-6.9c-1.7-2.8-4-5.2-7.5-5.8c-0.7-0.1-1.4-0.2-2.1,0
		c-4.3,1-7.6,3.5-10,7.2c-2,3-1.5,5.9,0.3,8.7c3.3,5.1,5.3,5.1,10,0.3c-1.3-1.7-2.5-3.4-3.9-5.2c1.3-1,2.6-2,4-3.1
		c2.5,3.3,5,6.6,7.6,10c-1.5,1.1-2.9,2.3-4.3,3.4c-2.3,1.8-4.6,3.5-7,5.2c-0.4,0.3-1.3,0.6-1.7,0.4c-5.3-3.3-10-7.2-11.8-13.5
		c-1.3-4.5-0.2-8.7,3-12.1c3.9-4.3,8.3-7.6,14.5-7.6c2.9,0,5.4,1.3,7.6,3.1C102.6,275.4,105.2,279.9,107.2,284.9z"/>
	<path class="st0" d="M251.6,71.7c0.2,0.2,0.3,0.2,0.3,0.3c3.3,2.5,4.2,4.7,3.3,7.7c-1.1,3.5-4,5.9-7.7,5.8
		c-2.9-0.1-5.8-0.9-8.7-1.7c-2.3-0.6-4.5-1.5-7-2.4c3.4-9.6,6.8-19.1,10.3-29c4.4,1.8,8.7,3.4,12.9,5.4c2.8,1.4,4.2,4,4,7.2
		C258.7,69.5,256.9,71.2,251.6,71.7z M242.3,70.5c-1,2.8-1.9,5.4-2.9,8.3c1.7,0.6,3.3,1.3,4.9,1.6c2.6,0.6,4.3-0.5,5.1-2.9
		c0.7-2.2-0.1-4.1-2.5-5.2C245.5,71.6,244,71.2,242.3,70.5z M246.3,59.1c-0.9,2.5-1.7,4.7-2.5,7.2c1.7,0.5,3.2,1.1,4.7,1.5
		c1.9,0.5,3.4-0.4,4.1-2.2c0.7-1.9,0.3-3.5-1.5-4.4C249.7,60.4,248.1,59.8,246.3,59.1z"/>
	<path class="st0" d="M182.7,354c-2.2-0.4-4.1-0.7-6-1.1c-0.4-0.1-0.9-0.7-1-1.2c-0.4-2.7-0.8-5.4-1.1-8.1c-0.4-3.9-0.8-4.4-5.9-4.9
		c-0.8,4-1.5,8-2.3,12.2c-2.1-0.4-4-0.7-6.1-1.1c1.9-10.3,3.8-20.3,5.7-30.7c4.4,1,8.6,1.7,12.6,2.9c4.9,1.5,6.7,4.8,5.9,9.9
		c-0.4,2.9-2,4.3-6.1,5.6c1.9,1.2,2.4,3,2.6,5C181.6,346.3,182.2,350,182.7,354z M171.2,325.2c-0.5,2.9-1,5.5-1.5,8.3
		c1.6,0.2,2.9,0.4,4.3,0.6c0.4,0,0.8,0,1.2,0c1.8-0.2,3-1.5,3.3-3.6c0.2-1.7-0.5-3.1-2.1-3.7C174.8,326,173.1,325.7,171.2,325.2z"/>
	<path class="st0" d="M190.8,354.7c1.8-5.6,3.5-11.1,5.2-16.7c1.4-4.5,2.8-8.9,4.2-13.4c0.3-0.9,0.7-1.3,1.7-1.3
		c1.8,0,3.6-0.3,5.3-0.2c0.5,0,1.4,0.5,1.6,0.9c4.1,9.5,8.1,19,12.1,28.5c0.1,0.2,0.1,0.4,0.2,0.8c-2.3,0.1-4.4,0.3-6.6,0.4
		c-0.9-2.1-1.6-4.1-2.6-6c-0.3-0.5-1.1-1.1-1.6-1.1c-3,0-5.9,0.3-8.9,0.4c-1.3,0-1.9,0.6-2.1,1.8c-0.3,1.2-0.8,2.4-1.1,3.6
		c-0.3,1.9-1.4,2.5-3.2,2.4C193.6,354.6,192.3,354.7,190.8,354.7z M209.2,341.1c-1.5-3.6-2.9-6.8-4.4-10.3c-1.2,3.7-2.2,7-3.2,10.3
		C204.2,341.1,206.5,341.1,209.2,341.1z"/>
	<path class="st0" d="M150.7,347.3c-2.2-1-4.1-1.8-6.1-2.7c0.1-2.2,0.2-4.2,0.4-6.3c0.1-1-0.1-1.6-1.2-2c-3.2-1.3-6.3-2.7-9.5-4.1
		c-1.5,1.5-2.9,3-4.3,4.6c-0.8,0.9-1.4,1-2.5,0.5c-1.5-0.7-3-1.3-4.8-2.1c1.4-1.5,2.7-2.9,4-4.3c5.8-6.1,11.7-12.2,17.4-18.3
		c0.9-1,1.7-1.2,2.9-0.6c0.9,0.5,1.9,0.9,2.9,1.3c2.7,1.1,2.6,1.1,2.5,4c-0.6,9.6-1.1,19.2-1.7,28.8
		C150.7,346.4,150.7,346.7,150.7,347.3z M145.3,330.9c0.2-3.7,0.4-7.1,0.6-11c-2.7,2.9-5.1,5.3-7.6,7.9
		C140.7,328.9,142.9,329.8,145.3,330.9z"/>
	<path class="st0" d="M279.8,69.3c1.9,1.2,3.8,2.3,5.5,3.6c0.5,0.4,0.7,1.4,0.6,2.1c-0.9,4.5-1.9,8.9-2.9,13.4
		c-1.2,5.2-2.4,10.4-3.5,15.6c-0.1,0.3-0.2,0.7-0.4,1.2c-1.6-1-3.2-2-4.8-3.1c-0.3-0.2-0.6-0.9-0.5-1.3c0.3-1.5,0.6-3,1-4.5
		c0.4-1.4,0.1-2.5-1.3-3.3c-2.7-1.6-5.3-3.4-8-5.1c-1.7,1.3-3.4,2.5-5,3.8c-0.8,0.6-1.4,0.7-2.2,0.1c-1.4-1-2.9-1.9-4.5-2.9
		C262.6,82.3,271.2,75.8,279.8,69.3z M270.3,84.3c2.2,1.4,4.2,2.7,6.3,4c0.8-3.6,1.5-6.9,2.4-10.6C275.9,80,273.2,82.1,270.3,84.3z"
		/>
	<path class="st0" d="M112.6,289c1.7,1.4,3.2,2.6,4.9,3.9c-1.5,1.9-2.9,3.7-4.3,5.6c-2.7,3.5-5.5,7-8.3,10.5
		c-1.4,1.8-2.4,3.9-1.1,6.1c1.5,2.5,3.6,4.3,6.7,4.5c2.1,0.1,3.5-1.3,4.7-2.8c3.9-5,7.8-9.9,11.7-14.9c0.2-0.3,0.4-0.5,0.8-0.9
		c1.6,1.3,3.2,2.5,4.9,3.8c-4.4,5.6-8.5,11.3-13.2,16.5c-5,5.6-13.5,4.5-18.7-1.9c-3.7-4.5-3.9-10-0.4-14.6
		C104.3,299.5,108.4,294.4,112.6,289z"/>
	<path class="st0" d="M311.8,147.3c-0.3-0.2-0.4-0.3-0.4-0.4c-1-1.7-2.8-3.4-2.9-5.2c-0.1-1.8,1.3-3.7,2.1-5.5c1-2.2,1.8-4.5,3-6.7
		c0.9-1.8,0.7-3.1-0.8-4.5c-3.5,2.2-7.1,4.4-10.7,6.6c-1-1.6-2-3.2-3.1-4.9c8.6-5.4,17.2-10.7,26-16.1c1,1.7,2,3.3,3.1,5
		c-3.7,2.3-7.2,4.5-10.8,6.7c0.6,2.1,1.8,2.8,3.9,2.7c3.9-0.1,7.7,0.1,11.6,0.2c0.6,0,1.4,0.5,1.8,1c1.1,1.5,2,3.1,2.9,4.6
		c-2.5,0-5,0.1-7.4,0c-3.2-0.1-6.4-0.3-9.6-0.5c-1.1-0.1-1.5,0.3-1.9,1.3c-1.9,4.7-3.9,9.4-5.9,14.1
		C312.3,146.2,312.1,146.6,311.8,147.3z"/>
	<path class="st0" d="M294.2,321.3c-6.9-7.8-13.7-15.4-20.6-23.2c4.6-4.1,9.1-8,13.7-12.2c0.9,1.5,1.6,2.8,2.5,4.4
		c-2.7,2.4-5.4,4.8-8.2,7.3c1.7,1.9,3.3,3.7,5,5.6c2.7-2.4,5.4-4.8,8.2-7.3c1.1,1.2,2.1,2.4,3.3,3.7c-2.8,2.5-5.5,4.9-8.2,7.3
		c1.9,2.2,3.8,4.3,5.7,6.4c3-2.7,6-5.3,9-8c1.1,1.2,2.2,2.4,3.3,3.7C303.3,313.2,298.9,317.1,294.2,321.3z"/>
	<path class="st0" d="M291.4,281.3c3.7-4.9,7.3-9.7,11-14.7c1.1,1.3,2.2,2.5,3.3,3.8c-2.2,2.9-4.3,5.8-6.6,8.8c2,1.4,3.9,2.8,6,4.4
		c2.2-2.9,4.4-5.7,6.6-8.6c1.4,1,2.6,2,3.9,3c-2.2,2.9-4.3,5.8-6.6,8.8c2.2,1.7,4.4,3.4,6.8,5.2c2.4-3.2,4.8-6.3,7.3-9.6
		c1.3,1,2.6,2,3.9,3c-3.7,4.9-7.3,9.6-11,14.6C307.9,293.8,299.7,287.6,291.4,281.3z"/>
	<path class="st0" d="M161.6,51.7c0.5-0.2,0.8-0.3,1.1-0.3c5.5-1.1,10.9-2.2,16.5-3.3c0,1.7,0,3.2,0,4.9c-3.5,0.7-7,1.4-10.6,2.2
		c0.5,2.4,0.9,4.7,1.5,7.2c3.5-0.7,6.9-1.3,10.6-2.1c0.3,1.5,0.7,3,1.1,4.7c-3.6,0.7-7,1.5-10.7,2.2c0.6,2.7,1.1,5.4,1.7,8.2
		c4-0.8,7.7-1.5,11.6-2.2c0.3,1.6,0.7,3.1,1.1,4.9c-5.9,1.2-11.8,2.3-17.8,3.5C165.6,71.6,163.6,61.7,161.6,51.7z"/>
	<path class="st0" d="M314.2,105.7c-1.3-1.8-2.4-3.8-3.9-5.4c-3.5-3.9-7.9-4.5-12-1.2c-2.2,1.7-4.1,4-5.6,6.3
		c-1.7,2.8-1.4,5.9,0.8,8.3c1.9,2.1,4.3,3.8,6.7,5.8c-0.7,0.7-1.7,1.6-2.7,2.6c-0.2,0.2-0.7,0.2-0.9,0.1
		c-5.6-2.5-11.3-8.3-10.6-15.3c0.2-2,0.8-4.1,1.8-5.9c3-4.9,7-8.8,12.9-9.7c6-0.9,10.4,2.1,13.9,6.6c0.2,0.3,0.4,0.6,0.6,0.9
		C318.1,103.5,318.3,101.9,314.2,105.7z"/>
	<path class="st0" d="M188.7,47.6c1.9,0,3.7-0.1,5.5,0.1c0.5,0,1.1,0.6,1.4,1.1c2.2,3.7,4.4,7.5,6.7,11.4c2.3-3.7,4.6-7.3,6.7-10.9
		c0.7-1.1,1.4-1.5,2.7-1.4c1.4,0.1,2.8,0,4.6,0c-1.9,3-3.6,5.7-5.3,8.4c-1.8,2.8-3.6,5.6-5.4,8.4c-0.4,0.7-0.7,1.5-0.7,2.3
		c-0.1,3.4,0,6.9,0,10.4c-2.2,0-4.1,0-6,0c0-3.5,0.1-6.9,0-10.3c0-1-0.3-2.1-0.8-3c-2.9-5.3-6-10.5-9-15.8
		C189,48.1,188.9,47.9,188.7,47.6z"/>
	<path class="st0" d="M278.6,331.8c-1.8,1.1-3.5,2-5.4,3.1c-2.2-3.9-4.4-7.6-6.5-11.4c-2.1-3.7-4.3-7.4-6.6-11.2
		c-2.6,1.5-5.1,2.9-7.7,4.4c-0.8-1.4-1.6-2.7-2.5-4.2c6.9-4,13.7-7.9,20.7-12c0.8,1.3,1.6,2.6,2.5,4.1c-2.5,1.4-4.9,2.9-7.7,4.5
		C269.8,316.7,274.2,324.2,278.6,331.8z"/>
	<path d="M143.7,200.2c0.4-5.7,0.6-11.5,1.4-17.2c0.7-5.2,3.1-9.9,7.4-13.2c9.5-7.4,23.3-3.3,27.9,8.4c1.8,4.5,2.3,9.2,2.4,14
		c0.1,7.1,0,14.2-0.3,21.2c-0.2,5.2-1.8,10-4.9,14.3c-7,9.5-24.3,9.4-30.3-3.6c-2.3-4.9-3-10.1-3.1-15.4c-0.1-2.8,0-5.6,0-8.4
		C144,200.2,143.8,200.2,143.7,200.2z M155.3,200.3c0.1,0,0.2,0,0.3,0c0,3.3,0,6.7,0,10c0,1.1-0.1,2.2,0.2,3.2
		c0.6,2.5,1,5.2,2.2,7.4c2.5,4.4,8.6,4.3,11-0.2c1.1-2.1,1.9-4.6,2-6.9c0.3-8,0.5-15.9,0.3-23.9c-0.1-3.2-0.9-6.5-1.9-9.5
		c-0.9-2.8-3.3-4.1-6.4-3.9c-2.8,0.2-4.6,1.7-5.7,4.2c-0.6,1.3-1.1,2.7-1.2,4.1C155.8,190,155.6,195.1,155.3,200.3z"/>
	<path d="M190.1,200.2c0.2-4.8,0.2-9.6,0.6-14.4c0.6-5.9,2.6-11.3,7.1-15.3c8.3-7.3,23.3-5.8,28.5,7.3c1.7,4.2,2.4,8.7,2.5,13.2
		c0.1,6.2,0.1,12.4,0,18.5c-0.1,4.5-0.8,9-2.5,13.2c-3,7.3-9,11.5-16.7,11.5c-7.7,0-13.8-4.1-16.9-11.4c-2-4.7-2.6-9.7-2.6-14.8
		c0-2.6,0-5.2,0-7.8C190.2,200.2,190.2,200.2,190.1,200.2z M201.5,200.2c0.1,0,0.2,0,0.2,0c0,4-0.2,8,0.1,11.9
		c0.2,2.7,0.8,5.4,1.7,7.9c0.9,2.6,3.1,4,6,4c2.8,0,4.9-1.3,5.9-3.8c0.8-1.8,1.5-3.8,1.6-5.8c0.3-8.6,0.4-17.2,0.3-25.8
		c0-2.7-0.9-5.5-1.8-8.1c-0.9-2.4-2.9-3.9-5.6-4c-2.8-0.1-4.9,1-6.1,3.5c-0.8,1.6-1.5,3.4-1.6,5.2
		C201.8,190.2,201.7,195.2,201.5,200.2z"/>
	<path d="M134.4,233.3c-3.3,0-6.3,0-9.4,0c-0.6,0-1.2,0-1.9,0c0-18.1,0-36.1,0-54.2c-3.9,0-7.6,0-11.5,0c0-3.2,0-6.3,0-9.5
		c7.5-0.8,15.1-1.5,22.8-2.3C134.4,189.3,134.4,211.2,134.4,233.3z"/>
	<path d="M236.4,181.6c-0.2-3.8,0.3-7.3,2.4-10.4c3.2-4.6,7.7-5.6,12.9-4.7c4.7,0.8,7.5,3.9,8.8,8.3c1.2,4.2,1.2,8.5,0.2,12.7
		c-1.6,6.9-6.5,10-14,9.3c-5.5-0.5-10-5.7-10.3-11.9C236.4,183.8,236.4,182.6,236.4,181.6z M254,181.9c-0.5-2.2-0.6-4.1-1.3-5.8
		c-0.6-1.7-2.1-2.5-4-2.5c-1.8,0-3.2,0.8-3.8,2.4c-1.5,3.7-1.6,7.6,0.1,11.2c1.4,3.1,5.7,3.3,7.4,0.3
		C253.3,185.9,253.5,183.7,254,181.9z"/>
	<path d="M288.5,218.9c0.2,3.3-0.1,6.5-1.8,9.5c-2.7,4.7-7.5,6.7-13.5,5.6c-4.7-0.8-8.8-5-9.3-10.2c-0.3-3.6-0.4-7.3,0.3-10.8
		c1.3-6.6,6.5-10,13.2-9.4c6.2,0.6,10.6,5.3,11,11.7C288.6,216.5,288.5,217.7,288.5,218.9z M281.2,218.9c-0.2-1.4-0.2-2.9-0.6-4.3
		c-0.6-2.4-2.4-3.8-4.5-3.8c-2.1,0-3.9,1.3-4.3,3.8c-0.4,2.6-0.3,5.3-0.2,7.9c0,0.7,0.5,1.4,0.9,2.1c1,1.7,2.8,2.5,4.7,2.2
		c1.9-0.3,3.1-1.5,3.5-3.5C280.9,221.9,281,220.4,281.2,218.9z"/>
	<path d="M273.1,173.3c2,1.2,3.7,2.3,5.6,3.4c-9.3,17.2-18.6,34.3-27.9,51.6c-1.9-1.1-3.7-2.2-5.6-3.4
		C254.5,207.7,263.7,190.6,273.1,173.3z"/>
	<path d="M122.9,95.6c0,5.3-5.7,9.5-10.6,7.5c-5-2.1-8.3-6-9.1-11.4c-0.8-5.4,4.5-9.9,9.8-8.7C117.6,84.1,122.9,90.8,122.9,95.6z"/>
	<path d="M242.3,70.5c1.7,0.6,3.2,1.1,4.6,1.8c2.3,1.1,3.2,3,2.5,5.2c-0.8,2.4-2.5,3.5-5.1,2.9c-1.6-0.3-3.1-1-4.9-1.6
		C240.4,76,241.3,73.3,242.3,70.5z"/>
	<path d="M246.3,59.1c1.7,0.7,3.4,1.2,4.9,2c1.8,1,2.2,2.5,1.5,4.4c-0.7,1.8-2.2,2.7-4.1,2.2c-1.5-0.4-3-0.9-4.7-1.5
		C244.7,63.9,245.5,61.6,246.3,59.1z"/>
	<path d="M171.2,325.2c1.8,0.5,3.6,0.8,5.2,1.4c1.6,0.6,2.3,2,2.1,3.7c-0.3,2.1-1.4,3.4-3.3,3.6c-0.4,0.1-0.8,0.1-1.2,0
		c-1.3-0.2-2.7-0.4-4.3-0.6C170.2,330.8,170.7,328.1,171.2,325.2z"/>
	<path d="M209.2,341.1c-2.7,0-5,0-7.6,0c1-3.3,2.1-6.6,3.2-10.3C206.4,334.3,207.7,337.5,209.2,341.1z"/>
	<path d="M145.3,330.9c-2.4-1-4.6-2-7-3c2.5-2.6,4.9-5.1,7.6-7.9C145.7,323.7,145.5,327.1,145.3,330.9z"/>
	<path d="M270.3,84.3c2.9-2.2,5.6-4.3,8.7-6.6c-0.8,3.7-1.6,7-2.4,10.6C274.5,87,272.5,85.7,270.3,84.3z"/>
	<path class="st0" d="M155.3,200.3c0.2-5.2,0.4-10.3,0.8-15.5c0.1-1.4,0.6-2.8,1.2-4.1c1.1-2.5,2.9-4.1,5.7-4.2
		c3-0.2,5.4,1.1,6.4,3.9c1,3,1.9,6.3,1.9,9.5c0.2,8,0.1,15.9-0.3,23.9c-0.1,2.3-0.9,4.8-2,6.9c-2.4,4.5-8.6,4.6-11,0.2
		c-1.2-2.2-1.6-4.9-2.2-7.4c-0.3-1-0.2-2.1-0.2-3.2c0-3.3,0-6.7,0-10C155.5,200.3,155.4,200.3,155.3,200.3z"/>
	<path class="st0" d="M201.5,200.2c0.2-5,0.3-10,0.6-14.9c0.1-1.8,0.8-3.6,1.6-5.2c1.2-2.4,3.3-3.6,6.1-3.5c2.7,0.1,4.7,1.6,5.6,4
		c0.9,2.6,1.8,5.4,1.8,8.1c0.1,8.6,0,17.2-0.3,25.8c-0.1,1.9-0.8,4-1.6,5.8c-1.1,2.5-3.1,3.8-5.9,3.8c-2.9,0-5-1.4-6-4
		c-0.9-2.5-1.6-5.2-1.7-7.9c-0.3-4-0.1-8-0.1-11.9C201.7,200.2,201.6,200.2,201.5,200.2z"/>
	<path class="st0" d="M254,181.9c-0.5,1.8-0.7,4-1.6,5.7c-1.6,3-5.9,2.8-7.4-0.3c-1.7-3.7-1.5-7.5-0.1-11.2c0.6-1.6,2-2.4,3.8-2.4
		c1.9,0,3.3,0.8,4,2.5C253.3,177.9,253.5,179.8,254,181.9z"/>
	<path class="st0" d="M281.2,218.9c-0.2,1.5-0.2,3-0.5,4.3c-0.4,2-1.6,3.2-3.5,3.5c-1.9,0.3-3.6-0.4-4.7-2.2
		c-0.4-0.7-0.9-1.4-0.9-2.1c-0.1-2.6-0.2-5.3,0.2-7.9c0.4-2.4,2.2-3.7,4.3-3.8c2.1,0,4,1.4,4.5,3.8C280.9,216,281,217.5,281.2,218.9
		z"/>
</g>
</svg>
