<?xml version="1.0" encoding="utf-8"?>
<!-- Generator: Adobe Illustrator 24.3.0, SVG Export Plug-In . SVG Version: 6.00 Build 0)  -->
<svg version="1.1" id="Layer_1" xmlns="http://www.w3.org/2000/svg" xmlns:xlink="http://www.w3.org/1999/xlink" x="0px" y="0px"
	 viewBox="0 0 400 400" style="enable-background:new 0 0 400 400;" xml:space="preserve">
<style type="text/css">
	.st0{fill:#FEFEFE;}
</style>
<g>
	<path class="st0" d="M400,354.5c-133.4,0-266.7,0-400,0C0,251.3,0,148.2,0,45c133.3,0,266.7,0,400,0C400,148.1,400,251.3,400,354.5
		z M232.7,291.1c0,30.7,24.5,53.1,50.5,55.2c12.3,1,23.8-1.5,34.2-8.1c17-10.9,25.6-26.9,26.3-47.1c0.8,0,1.4,0,2,0
		c8.3,0,16.7-0.1,25,0.1c5.7,0.1,10-4.6,9.8-9.9c-0.2-5.7,0-11.5-0.1-17.2c0-0.9,0-1.9-0.3-2.8c-1.2-4.3-4.6-6.9-9.2-7
		c-3-0.1-5.9,0-9,0c0-0.9,0-1.6,0-2.2c0-19.7,0-39.4,0-59.1c0-8.4-2.9-15.5-8.8-21.4c-18.9-18.8-37.7-37.6-56.5-56.4
		c-5.8-5.8-12.8-8.6-20.9-8.6c-7.5,0-15.1,0-22.6,0c-0.6,0-1.2,0-1.9,0c0-4.7,0.1-9.1,0-13.5c-0.1-6.1,0-12.1-0.5-18.2
		c-0.6-7.1-4.3-12.9-9.8-17.4c-5.2-4.3-11.3-6.3-18.1-6.3c-15.8,0.1-31.6,0-47.4,0c-33.6,0-67.2,0-100.8,0c-6.4,0-12.1,2.4-16.9,6.6
		C51,63.3,48,70.8,48,79.5c-0.1,8.3,0,16.7,0,25c0,0.6,0,1.2,0,1.9c-0.9,0-1.5,0-2.1,0c-9.8,0-19.7,0-29.5,0c-2.1,0-4.1,0.6-4.6,2.6
		c-1.2,4.4-1.2,8.9,0,13.3c0.6,2.4,3.1,2.6,5.3,2.6c51.2,0,102.4,0,153.6,0c0.8,0,1.7,0,2.5,0.1c2.3,0.3,4,1.8,4.1,4.2
		c0.1,3.4,0.1,6.7,0,10.1c-0.1,2.2-1.6,3.6-3.7,4c-0.8,0.1-1.7,0.1-2.5,0.1c-45.2,0-90.5,0-135.7,0c-4.2,0-5.8,1.5-5.8,5.8
		c0,2.3,0,4.6,0,6.9c0,4.1,1.6,5.7,5.7,5.7c15.6,0,31.2,0,46.8,0c23.8,0,47.6,0,71.4,0c3.7,0,5.4,1.6,5.4,5.3c0,2.7,0,5.4,0,8.1
		c0,3.3-1.8,5.1-5.1,5.1c-16.8,0-33.5,0-50.3,0c-29,0-58.1,0-87.1,0c-3.3,0-5.1,1.8-5.2,5.1c0,2.5,0,5,0,7.4c0,4.4,1.7,6,6,6
		c34.4,0,68.7,0,103.1,0c5.1,0,10.2,0,15.4,0c3,0,4.8,1.8,4.8,4.9c0,2.9,0,5.7,0,8.6c0,1.9-0.8,3.6-2.6,4.3
		c-1.1,0.4-2.3,0.6-3.4,0.6c-28,0-56,0-84.1,0c-0.7,0-1.4,0-2.3,0c0,0.9,0,1.6,0,2.2c0,23.5,0,46.9,0,70.4c0,3.5,0.3,7,0.9,10.5
		c1.8,11.4,6.8,21.2,14.9,29.4c11,11.1,24.4,16.7,40,16.7c12.6,0,24.1-4,34-12c11.7-9.4,18.5-21.5,20.5-36.3c0.3-2.3,0.4-4.7,0.5-7
		C183.5,291.1,208,291.1,232.7,291.1z"/>
	<path d="M232.7,291.1c-24.6,0-49.1,0-73.8,0c-0.2,2.4-0.2,4.7-0.5,7c-2,14.8-8.9,27-20.5,36.3c-9.9,8-21.4,12-34,12
		c-15.6,0-29-5.5-40-16.7c-8.1-8.2-13.1-18-14.9-29.4c-0.5-3.5-0.9-7-0.9-10.5c-0.1-23.5,0-46.9,0-70.4c0-0.7,0-1.3,0-2.2
		c0.9,0,1.6,0,2.3,0c28,0,56,0,84.1,0c1.2,0,2.4-0.2,3.4-0.6c1.9-0.8,2.6-2.4,2.6-4.3c0-2.9,0-5.7,0-8.6c0-3.1-1.8-4.8-4.8-4.9
		c-5.1-0.1-10.2,0-15.4,0c-34.4,0-68.7,0-103.1,0c-4.3,0-6-1.7-6-6c0-2.5,0-5,0-7.4c0-3.3,1.8-5.1,5.2-5.1c29,0,58.1,0,87.1,0
		c16.8,0,33.5,0,50.3,0c3.4,0,5.1-1.7,5.1-5.1c0-2.7,0-5.4,0-8.1c0-3.7-1.7-5.3-5.4-5.3c-23.8,0-47.6,0-71.4,0
		c-15.6,0-31.2,0-46.8,0c-4.1,0-5.7-1.5-5.7-5.7c0-2.3,0-4.6,0-6.9c0-4.3,1.6-5.8,5.8-5.8c45.2,0,90.5,0,135.7,0
		c0.8,0,1.7,0,2.5-0.1c2.1-0.4,3.6-1.8,3.7-4c0.1-3.4,0.1-6.7,0-10.1c-0.1-2.4-1.8-3.9-4.1-4.2c-0.8-0.1-1.7-0.1-2.5-0.1
		c-51.2,0-102.4,0-153.6,0c-2.3,0-4.7-0.2-5.3-2.6c-1.1-4.4-1.1-8.9,0-13.3c0.5-2.1,2.6-2.6,4.6-2.6c9.8,0,19.7,0,29.5,0
		c0.6,0,1.2,0,2.1,0c0-0.7,0-1.3,0-1.9c0-8.3-0.1-16.7,0-25c0.1-8.7,3-16.2,9.8-21.9c4.9-4.1,10.5-6.6,16.9-6.6
		c33.6-0.1,67.2,0,100.8,0c15.8,0,31.6,0,47.4,0c6.8,0,12.8,2,18.1,6.3c5.5,4.5,9.1,10.3,9.8,17.4c0.5,6,0.4,12.1,0.5,18.2
		c0.1,4.4,0,8.9,0,13.5c0.7,0,1.3,0,1.9,0c7.5,0,15.1,0,22.6,0c8.2,0,15.1,2.8,20.9,8.6c18.8,18.8,37.6,37.7,56.5,56.4
		c6,5.9,8.9,13,8.8,21.4c-0.1,19.7,0,39.4,0,59.1c0,0.7,0,1.3,0,2.2c3.1,0,6,0,9,0c4.6,0.1,8,2.7,9.2,7c0.2,0.9,0.3,1.9,0.3,2.8
		c0,5.7-0.1,11.5,0.1,17.2c0.2,5.3-4.1,10-9.8,9.9c-8.3-0.2-16.7-0.1-25-0.1c-0.6,0-1.2,0-2,0c-0.7,20.2-9.3,36.2-26.3,47.1
		c-10.4,6.7-21.9,9.1-34.2,8.1C257.1,344.2,232.6,321.8,232.7,291.1z M288.3,198.7C288.3,198.7,288.3,198.7,288.3,198.7
		c11.8,0,23.5,0,35.3,0c1.5,0,2-0.5,1.9-1.9c-0.1-3.9-0.1-7.9,0-11.8c0-1.5-0.5-2.6-1.5-3.7c-15.6-15.5-31.2-31-46.8-46.4
		c-0.4-0.4-1.2-0.7-1.9-0.7c-7.3-0.1-14.6,0-21.9-0.1c-1.6,0-2.1,0.4-2.1,2.1c0.1,20.2,0.1,40.4,0,60.6c0,1.5,0.4,2,2,2
		C264.9,198.7,276.6,198.7,288.3,198.7z M103.3,318.7c15.2,0.2,27.8-12.3,27.8-27.5c0-15.2-12.2-27.7-27.6-27.8
		c-15-0.1-27.6,11.6-27.8,27.4C75.5,307.7,89.6,319,103.3,318.7z M288.1,318.7c15,0.1,27.7-12.1,27.7-27.3c0-15.7-11.9-27.9-27.7-28
		c-15.2-0.1-27.6,11.9-27.6,27.5C260.4,307.7,274.4,319.1,288.1,318.7z"/>
	<path class="st0" d="M288.3,198.7c-11.7,0-23.4,0-35.1,0c-1.6,0-2-0.5-2-2c0-20.2,0-40.4,0-60.6c0-1.6,0.5-2.1,2.1-2.1
		c7.3,0.1,14.6,0,21.9,0.1c0.6,0,1.4,0.3,1.9,0.7c15.6,15.5,31.2,31,46.8,46.4c1.1,1.1,1.6,2.2,1.5,3.7c-0.1,3.9-0.1,7.9,0,11.8
		c0,1.5-0.4,1.9-1.9,1.9C311.8,198.7,300,198.7,288.3,198.7C288.3,198.7,288.3,198.7,288.3,198.7z"/>
	<path class="st0" d="M103.3,318.7c-13.7,0.3-27.8-11-27.6-27.9c0.2-15.8,12.7-27.5,27.8-27.4c15.4,0.1,27.7,12.6,27.6,27.8
		C131.1,306.4,118.5,318.9,103.3,318.7z"/>
	<path class="st0" d="M288.1,318.7c-13.8,0.4-27.8-11-27.7-27.8c0.1-15.6,12.5-27.6,27.6-27.5c15.9,0.1,27.7,12.3,27.7,28
		C315.8,306.6,303.2,318.8,288.1,318.7z"/>
</g>
</svg>
